<svg id="图层_1" data-name="图层 1" xmlns="http://www.w3.org/2000/svg" width="16" height="16" viewBox="0 0 16 16"><defs><style>.cls-1{fill:#dae4f7;}.cls-2{fill:#6d8cfb;}</style></defs><path class="cls-1" d="M3.2,0h9.6Q16,0,16,3.2v9.6Q16,16,12.8,16H3.2Q0,16,0,12.8V3.2Q0,0,3.2,0Zm0,0"/><path class="cls-2" d="M12.87,7.21A4.82,4.82,0,0,0,8,2.44,4.82,4.82,0,0,0,3.13,7.21a4.69,4.69,0,0,0,1.39,3.33h0l0,0,0,0,2.75,2.7a1,1,0,0,0,1.35,0l2.76-2.7,0,0,0,0h0a4.65,4.65,0,0,0,1.4-3.33ZM8,8.46A1.16,1.16,0,1,1,9.16,7.3,1.16,1.16,0,0,1,8,8.46Zm0,0"/></svg>