<svg id="图层_1" data-name="图层 1" xmlns="http://www.w3.org/2000/svg" width="16" height="16" viewBox="0 0 16 16"><defs><style>.cls-1{fill:#4ec684;}.cls-2{fill:#fff;}</style></defs><path class="cls-1" d="M0,8a8.1,8.1,0,0,0,1.13,4.1L.44,15.72,4.2,15A8.08,8.08,0,0,0,8,16a8.26,8.26,0,0,0,5.68-2.32A7.92,7.92,0,0,0,16,8a8.26,8.26,0,0,0-2.32-5.68A8.26,8.26,0,0,0,8,0,8.26,8.26,0,0,0,2.32,2.32,8.26,8.26,0,0,0,0,8ZM0,8"/><path class="cls-2" d="M10.42,9.7c-.95-.81-1.28-.4-1.69.07s-1-.27-1.68-.94S5.77,7.41,6,7.08s.81-.75.06-1.69-1.28-.2-1.75.2,0,2.29,1.75,4.11S9.74,12,10.21,11.45s1.22-.87.21-1.75Zm0,0"/><path class="cls-2" d="M8.1,5a.34.34,0,0,1-.35-.35.35.35,0,0,1,.35-.36A3.62,3.62,0,0,1,11.72,7.9a.38.38,0,0,1-.19.31.36.36,0,0,1-.35,0A.38.38,0,0,1,11,7.9,2.89,2.89,0,0,0,8.1,5Z"/><path class="cls-2" d="M8.1,6.44a.37.37,0,0,1-.35-.36.34.34,0,0,1,.35-.35A2.17,2.17,0,0,1,10.27,7.9a.39.39,0,0,1-.18.31.38.38,0,0,1-.36,0,.37.37,0,0,1-.18-.31A1.45,1.45,0,0,0,8.1,6.44Z"/></svg>