<svg id="图层_1" data-name="图层 1" xmlns="http://www.w3.org/2000/svg" width="16" height="16" viewBox="0 0 16 16"><defs><style>.cls-1{fill:#329dce;}</style></defs><path class="cls-1" d="M0,8.81H4.4A14.52,14.52,0,0,0,6.76,16,8.08,8.08,0,0,1,0,8.81ZM0,7.19A8.08,8.08,0,0,1,6.76,0,14.52,14.52,0,0,0,4.4,7.19Zm16,0H11.6A14.52,14.52,0,0,0,9.24,0,8.08,8.08,0,0,1,16,7.19Zm0,1.62A8.08,8.08,0,0,1,9.24,16,14.52,14.52,0,0,0,11.6,8.81Zm-10,0h4A13,13,0,0,1,8,15,13,13,0,0,1,6,8.81ZM6,7.19A13,13,0,0,1,8,1a13,13,0,0,1,2,6.15Z"/></svg>