<svg id="图层_1" data-name="图层 1" xmlns="http://www.w3.org/2000/svg" width="48" height="48" viewBox="0 0 48 48"><defs><style>.cls-1{fill:#eff4f9;}.cls-2{fill:#b6c2cd;}.cls-3{fill:#324558;}</style></defs><path class="cls-1" d="M24,0H48a0,0,0,0,1,0,0V24A24,24,0,0,1,24,48h0A24,24,0,0,1,0,24v0A24,24,0,0,1,24,0Z"/><path class="cls-2" d="M14.88,32.59V20.75a9.62,9.62,0,1,1,19.24,0V32.59h1.2V35H13.68V32.59Z"/><polygon class="cls-3" points="25.53 22.72 29.07 22.72 23.17 30.97 23.17 25.07 19.64 25.07 25.53 16.82 25.53 22.72"/></svg>