<svg id="图层_1" data-name="图层 1" xmlns="http://www.w3.org/2000/svg" width="14" height="14" viewBox="0 0 14 14"><defs><style>.cls-1{opacity:0.6;}.cls-2{fill:#324558;}.cls-3{fill:none;}</style></defs><g class="cls-1"><path class="cls-2" d="M14,7A7,7,0,0,1,0,7V6.76H1.83V7A5.17,5.17,0,1,0,3.26,3.44l-.07.08,1.69,1.7H0V.34L1.88,2.22,2,2.13A7,7,0,0,1,14,7Z"/><path d="M5.44,5.44v0h0Z"/></g><polygon class="cls-2" points="9.81 9.36 8.51 10.66 5.68 7.83 5.68 3.82 7.52 3.82 7.52 7.07 9.81 9.36"/><path class="cls-3" d="M5.44,5.91v0M7.52,7.07V3.82H5.68v4l2.83,2.83,1.3-1.3Z"/></svg>