<svg id="图层_1" data-name="图层 1" xmlns="http://www.w3.org/2000/svg" width="14" height="14" viewBox="0 0 14 14"><defs><style>.cls-1{fill:#1A84F9;}</style></defs><path class="cls-1" d="M13.3.7H.7a.7.7,0,0,0-.7.7V12.6a.7.7,0,0,0,.7.7H13.3a.7.7,0,0,0,.7-.7V1.4A.7.7,0,0,0,13.3.7ZM11.76,5.43H10l-.29,2.8h2.1v1.4H9.51l-.18,1.66H7.93L8.1,9.63H5.31l-.18,1.66H3.73L3.9,9.63H2.24V8.23H4.05l.29-2.8H2.24V4H4.49l.15-1.32H6.05L5.9,4H8.69l.15-1.32h1.41L10.1,4h1.66Z"/><polygon class="cls-1" points="5.46 8.23 8.25 8.23 8.54 5.43 5.75 5.43 5.46 8.23"/></svg>
