<svg id="图层_1" data-name="图层 1" xmlns="http://www.w3.org/2000/svg" width="48" height="48" viewBox="0 0 48 48"><defs><style>.cls-1{fill:#eff4f9;}.cls-2{fill:#b6c2cd;}.cls-3{fill:#324558;}</style></defs><path class="cls-1" d="M24,0H48a0,0,0,0,1,0,0V24A24,24,0,0,1,24,48h0A24,24,0,0,1,0,24v0A24,24,0,0,1,24,0Z"/><path class="cls-2" d="M24.48,16h9.87A1.14,1.14,0,0,1,35.5,17.1V33.2a1.14,1.14,0,0,1-1.15,1.15H13.65A1.14,1.14,0,0,1,12.5,33.2V14.8a1.14,1.14,0,0,1,1.15-1.15h8.53Z"/><path class="cls-3" d="M28.25,24.58h-.53v-.53a3.72,3.72,0,1,0-7.44,0v.53h-.53a.53.53,0,0,0-.53.53v5.32a.53.53,0,0,0,.53.53h8.5a.53.53,0,0,0,.53-.53V25.11A.53.53,0,0,0,28.25,24.58Zm-3.72,4.25H23.47V26.71h1.06Zm2.13-4.25H21.34v-.53a2.66,2.66,0,1,1,5.32,0Z"/></svg>