<svg id="图层_1" data-name="图层 1" xmlns="http://www.w3.org/2000/svg" width="24" height="24" viewBox="0 0 24 24"><defs><style>.cls-1{fill:#b6c2cd;}.cls-2{fill:#324558;}</style></defs><path class="cls-1" d="M12.5,3.6H22.8A1.2,1.2,0,0,1,24,4.8V21.6a1.2,1.2,0,0,1-1.2,1.2H1.2A1.2,1.2,0,0,1,0,21.6V2.4A1.2,1.2,0,0,1,1.2,1.2h8.9Z"/><path class="cls-2" d="M16.44,12.6h-.56v-.55a3.88,3.88,0,0,0-7.76,0v.55H7.56a.56.56,0,0,0-.55.56v5.55a.55.55,0,0,0,.55.55h8.88a.55.55,0,0,0,.55-.55V13.16A.56.56,0,0,0,16.44,12.6ZM12.55,17h-1.1V14.82h1.1Zm2.22-4.44H9.23v-.55a2.77,2.77,0,1,1,5.54,0Z"/></svg>