<svg id="图层_1" data-name="图层 1" xmlns="http://www.w3.org/2000/svg" width="46" height="46" viewBox="0 0 46 46"><defs><style>.cls-1{fill:#b6c2cd;}.cls-2,.cls-3{fill:#324558;}.cls-3{opacity:0.6;}</style></defs><path class="cls-1" d="M41.11,43H5.33L3.22,40.89V5.11L5.33,3H41.11l2.11,2.11V40.89Z"/><path class="cls-2" d="M23.85,21.3a5.75,5.75,0,0,1,5.75,5.75V34H18.1v-6.9A5.74,5.74,0,0,1,23.85,21.3Z"/><path class="cls-3" d="M16.13,24.76a8,8,0,0,0-.32,1.89V34H12.35V28.77a4,4,0,0,1,3.59-4Z"/><path class="cls-3" d="M31.57,24.76a4,4,0,0,1,3.78,4V34H31.9v-6.9A8.18,8.18,0,0,0,31.57,24.76Z"/><circle class="cls-3" cx="16.37" cy="20.72" r="2.87"/><circle class="cls-3" cx="31.32" cy="20.72" r="2.87"/><circle class="cls-2" cx="23.85" cy="15.55" r="4.6"/></svg>