<svg xmlns="http://www.w3.org/2000/svg" width="46" height="46" viewBox="0 0 46 46"><defs><style>.cls-1,.cls-3{fill:#324558;}.cls-2{fill:#b6c2cd;}.cls-3{opacity:0.6;}</style></defs><g id="图层_2" data-name="图层 2"><g id="图层_1-2" data-name="图层 1"><path class="cls-1" d="M42.35,46H3.65L0,42.35V3.65L3.65,0h38.7L46,3.65v38.7Z"/><path class="cls-2" d="M40,42H6L4,40V6L6,4H40l2,2V40Z"/><path class="cls-3" d="M13.22,12H32.78A1.22,1.22,0,0,1,34,13.22v8.56H12V13.22A1.22,1.22,0,0,1,13.22,12Z"/><path class="cls-3" d="M12,24.22H34v8.56A1.22,1.22,0,0,1,32.78,34H13.22A1.22,1.22,0,0,1,12,32.78Z"/><rect class="cls-1" x="16.89" y="27.89" width="3.67" height="2.44"/><rect class="cls-1" x="16.89" y="15.67" width="3.67" height="2.44"/></g></g></svg>