<svg id="图层_1" data-name="图层 1" xmlns="http://www.w3.org/2000/svg" width="24" height="24" viewBox="0 0 24 24"><defs><style>.cls-1{fill:#b6c2cd;}.cls-2,.cls-3{fill:#324558;}.cls-3{opacity:0.6;}</style></defs><polygon class="cls-1" points="12 12.76 19.5 24 4.51 24 12 12.76"/><path class="cls-2" d="M10.68,9.71A1.87,1.87,0,1,1,13.23,7l.1.09a1.88,1.88,0,0,1-2.65,2.65Z"/><path class="cls-3" d="M3.61,0,5.38,1.77A9.36,9.36,0,0,0,5.38,15L3.61,16.78A11.87,11.87,0,0,1,3.61,0Z"/><path class="cls-3" d="M20.39,0a11.87,11.87,0,0,1,0,16.78h0L18.62,15a9.36,9.36,0,0,0,0-13.24Z"/><path class="cls-2" d="M7.14,3.53,8.91,5.3a4.36,4.36,0,0,0,0,6.18h0L7.14,13.25A6.88,6.88,0,0,1,7.14,3.53Z"/><path class="cls-2" d="M16.86,3.53a6.88,6.88,0,0,1,0,9.72l-1.77-1.77a4.36,4.36,0,0,0,0-6.18h0Z"/></svg>