<svg id="图层_1" data-name="图层 1" xmlns="http://www.w3.org/2000/svg" width="48" height="48" viewBox="0 0 48 48"><defs><style>.cls-1{fill:#eff4f9;}.cls-2{fill:#b6c2cd;}.cls-3,.cls-4{fill:#324558;}.cls-4{opacity:0.6;}</style></defs><path class="cls-1" d="M24,0H48a0,0,0,0,1,0,0V24A24,24,0,0,1,24,48h0A24,24,0,0,1,0,24v0A24,24,0,0,1,24,0Z"/><polygon class="cls-2" points="24 24.76 31.5 36 16.51 36 24 24.76"/><path class="cls-3" d="M22.68,21.71A1.87,1.87,0,1,1,25.23,19l.1.09a1.88,1.88,0,0,1-2.65,2.65Z"/><path class="cls-4" d="M15.61,12l1.77,1.77a9.36,9.36,0,0,0,0,13.24l-1.77,1.77a11.87,11.87,0,0,1,0-16.78Z"/><path class="cls-4" d="M32.39,12a11.87,11.87,0,0,1,0,16.78h0L30.62,27a9.36,9.36,0,0,0,0-13.24Z"/><path class="cls-3" d="M19.14,15.53l1.77,1.77a4.36,4.36,0,0,0,0,6.18h0l-1.77,1.77A6.88,6.88,0,0,1,19.14,15.53Z"/><path class="cls-3" d="M28.86,15.53a6.88,6.88,0,0,1,0,9.72l-1.77-1.77a4.36,4.36,0,0,0,0-6.18h0Z"/></svg>