<svg id="图层_1" data-name="图层 1" xmlns="http://www.w3.org/2000/svg" width="14" height="14" viewBox="0 0 14 14"><defs><style>.cls-1{fill:#b6c2cd;}.cls-2{fill:#324558;}</style></defs><path class="cls-1" d="M12.6,0H4.2a.7.7,0,0,0-.7.7V2.8H1.41a.7.7,0,0,0-.71.7v9.8h0a.7.7,0,0,0,.7.7H9.8a.7.7,0,0,0,.7-.7V11.2h2.1a.7.7,0,0,0,.7-.7V.7A.7.7,0,0,0,12.6,0Zm-.7,9.8H10.5v-7H4.9V1.4h7Z"/><rect class="cls-2" x="3.5" y="6.3" width="4.2" height="1.4"/><rect class="cls-2" x="3.5" y="9.1" width="4.2" height="1.4"/></svg>