<svg id="图层_1" data-name="图层 1" xmlns="http://www.w3.org/2000/svg" width="695.85" height="374.67" viewBox="0 0 695.85 374.67"><defs><style>.cls-1{fill:#b6c2cd;}.cls-18,.cls-2{fill:#324558;}.cls-3{fill:#5c7387;}.cls-4{fill:#abe1ff;}.cls-5{fill:#0b9cff;}.cls-6{fill:#3cb0ff;}.cls-7,.cls-8{fill:#fff;}.cls-7{opacity:0.5;}.cls-9{fill:#00aa72;}.cls-10{fill:#90e0c5;}.cls-11{fill:#555;}.cls-12{fill:#eff4f9;}.cls-13,.cls-14{fill:#f5a623;}.cls-13,.cls-15{opacity:0.15;}.cls-15,.cls-16{fill:#55bc8a;}.cls-17{fill:none;}.cls-18{opacity:0.6;}.cls-19{fill:#e2e7eb;}.cls-20{fill:#1a84f9;}</style></defs><circle class="cls-1" cx="371.22" cy="272.87" r="12"/><path class="cls-1" d="M-28.35,41.66a2.22,2.22,0,0,1-2.21-2.21,2.22,2.22,0,0,1,2.21-2.21V32.45a7,7,0,0,0-7,7,7,7,0,0,0,7,7A7,7,0,0,0-24,44.94l-2.95-3.76a2.32,2.32,0,0,1-1.4.48Zm0,0" transform="translate(109.85 61.99)"/><path class="cls-2" d="M-26.14,39.45h4.79a7,7,0,0,0-7-7v4.79a2.21,2.21,0,0,1,2.21,2.21Zm0,0" transform="translate(109.85 61.99)"/><path class="cls-3" d="M-21.35,39.45h-4.79A2.2,2.2,0,0,1-27,41.18L-24,44.94a6.93,6.93,0,0,0,2.69-5.49Zm0,0" transform="translate(109.85 61.99)"/><path class="cls-4" d="M-28.35,59.88a2.22,2.22,0,0,1-2.21-2.21,2.22,2.22,0,0,1,2.21-2.21V50.67a7,7,0,0,0-7,7,7,7,0,0,0,7,7A7,7,0,0,0-24,63.16l-2.95-3.76a2.32,2.32,0,0,1-1.4.48Zm0,0" transform="translate(109.85 61.99)"/><path class="cls-5" d="M-26.14,57.67h4.79a7,7,0,0,0-7-7v4.79a2.22,2.22,0,0,1,2.21,2.21Zm0,0" transform="translate(109.85 61.99)"/><path class="cls-6" d="M-21.35,57.67h-4.79A2.2,2.2,0,0,1-27,59.4L-24,63.16a6.93,6.93,0,0,0,2.69-5.49Zm0,0" transform="translate(109.85 61.99)"/><rect class="cls-7" x="205.17" y="81.07" width="5.17" height="5.17"/><rect class="cls-8" x="103.08" y="19.08" width="5.17" height="5.17" transform="translate(125.47 143.05) rotate(-45)"/><rect class="cls-7" x="205.17" y="88.83" width="5.17" height="5.17"/><rect class="cls-7" x="212.92" y="88.83" width="5.17" height="5.17"/><path class="cls-8" d="M103.08,26.83" transform="translate(109.85 61.99)"/><rect class="cls-4" y="145.24" width="5.17" height="5.17"/><rect class="cls-5" x="-102.09" y="83.24" width="5.17" height="5.17" transform="translate(20.01 16.77) rotate(-45)"/><rect class="cls-4" y="153" width="5.17" height="5.17"/><rect class="cls-4" x="7.76" y="153" width="5.17" height="5.17"/><path d="M-102.09,91" transform="translate(109.85 61.99)"/><rect class="cls-9" x="46.22" width="25.33" height="21.78"/><rect class="cls-10" x="78.22" y="1" width="25.33" height="21.78"/><polygon class="cls-4" points="34 154.15 36.06 152.65 41 156.09 45.98 152.59 48 154.15 41 159.17 34 154.15"/><polygon class="cls-5" points="35.27 150.89 34 150.01 41 145.17 48 150.01 46.73 150.9 41 154.86 35.27 150.89"/><polygon class="cls-1" points="96.73 103.95 98.79 102.45 103.72 105.89 108.7 102.39 110.73 103.95 103.73 108.97 96.73 103.95"/><polygon class="cls-2" points="97.99 100.69 96.73 99.81 103.73 94.97 110.73 99.81 109.45 100.69 103.73 104.66 97.99 100.69"/><path d="M-11.85,38.69" transform="translate(109.85 61.99)"/><path class="cls-8" d="M196.27,18.3H186.2a1,1,0,0,0-1,1.06V22h12V19.36a1,1,0,0,0-1-1.06Z" transform="translate(109.85 61.99)"/><path class="cls-7" d="M185.24,23.34h5.35v7h-4.45a1,1,0,0,1-.9-1.06Z" transform="translate(109.85 61.99)"/><rect class="cls-7" x="301.73" y="85.33" width="5.36" height="3"/><path class="cls-7" d="M191.88,27.67v2.6h4.45a.92.92,0,0,0,.91-.93V27.67Z" transform="translate(109.85 61.99)"/><path class="cls-5" d="M-8.4,84.78H-18.47a1,1,0,0,0-1,1.07v2.62h12V85.85a1,1,0,0,0-1-1.07Z" transform="translate(109.85 61.99)"/><path class="cls-4" d="M-19.43,89.83h5.36v7h-4.46a1,1,0,0,1-.9-1Z" transform="translate(109.85 61.99)"/><rect class="cls-4" x="97.06" y="151.82" width="5.36" height="3"/><path class="cls-4" d="M-12.79,94.16v2.6h4.46a.92.92,0,0,0,.9-.94V94.16Z" transform="translate(109.85 61.99)"/><path class="cls-4" d="M-13.16,93.56" transform="translate(109.85 61.99)"/><path class="cls-8" d="M226.26,17h-1.18a.49.49,0,0,0-.49.41L224.28,19a.5.5,0,0,1-.32.37l-.41.17a.5.5,0,0,1-.49,0l-1.3-.87a.5.5,0,0,0-.63.07l-.83.83a.49.49,0,0,0-.06.63l.86,1.3a.5.5,0,0,1,0,.49,3,3,0,0,0-.17.41.52.52,0,0,1-.38.32l-1.52.3a.49.49,0,0,0-.4.49v1.18a.49.49,0,0,0,.4.49l1.52.31a.5.5,0,0,1,.38.32,3,3,0,0,0,.17.41.51.51,0,0,1,0,.49l-.86,1.29a.5.5,0,0,0,.06.64l.83.83a.49.49,0,0,0,.63.06l1.3-.86a.54.54,0,0,1,.28-.08.52.52,0,0,1,.21,0,3,3,0,0,0,.41.17.5.5,0,0,1,.32.38l.31,1.52a.49.49,0,0,0,.49.4h1.18a.5.5,0,0,0,.49-.4l.3-1.52a.52.52,0,0,1,.32-.38,3,3,0,0,0,.41-.17.54.54,0,0,1,.22,0,.5.5,0,0,1,.27.08l1.3.86a.49.49,0,0,0,.63-.06l.83-.83a.51.51,0,0,0,.07-.64l-.87-1.29a.5.5,0,0,1,0-.49c.06-.13.12-.27.17-.41a.5.5,0,0,1,.37-.32l1.52-.31a.49.49,0,0,0,.41-.49V23.44a.5.5,0,0,0-.41-.49l-1.52-.3a.52.52,0,0,1-.37-.32c-.05-.14-.11-.28-.17-.41a.5.5,0,0,1,0-.49l.87-1.3a.5.5,0,0,0-.07-.63l-.83-.83a.5.5,0,0,0-.63-.07l-1.3.87a.5.5,0,0,1-.27.08.54.54,0,0,1-.22-.05l-.41-.17a.52.52,0,0,1-.32-.37l-.3-1.52a.51.51,0,0,0-.49-.41Zm-.59,10.5a3.5,3.5,0,1,1,2.47-1,3.41,3.41,0,0,1-2.47,1Zm0,0" transform="translate(109.85 61.99)"/><circle class="cls-7" cx="335.51" cy="86.03" r="2"/><path class="cls-5" d="M9.91,84.62H8.73a.49.49,0,0,0-.49.4l-.31,1.52a.48.48,0,0,1-.32.38,3.56,3.56,0,0,0-.41.17.49.49,0,0,1-.21,0,.54.54,0,0,1-.28-.08l-1.29-.86a.5.5,0,0,0-.63.06L4,87.08a.51.51,0,0,0-.06.64L4.75,89a.51.51,0,0,1,0,.49c-.06.13-.12.27-.17.41a.5.5,0,0,1-.37.32l-1.53.31a.49.49,0,0,0-.4.49v1.18a.5.5,0,0,0,.4.49l1.53.3a.52.52,0,0,1,.37.32c0,.14.11.28.17.41a.5.5,0,0,1,0,.49l-.86,1.3a.5.5,0,0,0,.06.63l.84.83a.5.5,0,0,0,.63.07l1.29-.87A.54.54,0,0,1,7,96.1a.5.5,0,0,1,.21.05l.41.17a.48.48,0,0,1,.32.37l.31,1.52a.5.5,0,0,0,.49.41H9.91a.5.5,0,0,0,.49-.41l.3-1.52a.51.51,0,0,1,.33-.37l.4-.17a.59.59,0,0,1,.22-.05.57.57,0,0,1,.28.08l1.29.87a.5.5,0,0,0,.63-.07l.84-.83a.51.51,0,0,0,.06-.63l-.86-1.3a.5.5,0,0,1,0-.49c.06-.13.12-.27.17-.41a.52.52,0,0,1,.37-.32l1.53-.3a.5.5,0,0,0,.4-.49V91a.49.49,0,0,0-.4-.49l-1.53-.31a.5.5,0,0,1-.37-.32c0-.14-.11-.28-.17-.41a.51.51,0,0,1,0-.49l.86-1.29a.53.53,0,0,0-.06-.64l-.84-.83a.5.5,0,0,0-.63-.06l-1.29.86a.57.57,0,0,1-.5,0,2.83,2.83,0,0,0-.4-.17.51.51,0,0,1-.33-.38L10.4,85a.49.49,0,0,0-.49-.4Zm-.59,10.5a3.51,3.51,0,1,1,2.47-1,3.49,3.49,0,0,1-2.47,1Zm0,0" transform="translate(109.85 61.99)"/><circle class="cls-4" cx="119.17" cy="153.61" r="2"/><path class="cls-2" d="M297.5,47.44l-4.21,3.5-4.21-3.5-.8.78,5,4.26,5-4.27Z" transform="translate(109.85 61.99)"/><rect class="cls-7" x="265.28" y="79.78" width="12" height="12"/><path class="cls-8" d="M161,20.41h4.72v1.93H161Z" transform="translate(109.85 61.99)"/><path class="cls-8" d="M161,25.41h4.72v1.93H161Z" transform="translate(109.85 61.99)"/><polygon class="cls-8" points="268 81.88 269.46 83.39 267.95 84.85 266.49 83.34 268 81.88 268 81.88"/><rect class="cls-8" x="274.32" y="84.29" width="1.27" height="3.83"/><rect class="cls-8" x="157.07" y="25.14" width="2.11" height="2.11" transform="translate(136.02 179.18) rotate(-44)"/><path class="cls-8" d="M158.14,25.7" transform="translate(109.85 61.99)"/><path class="cls-8" d="M161.35,21.06v.71h-2v-.71Zm0,4.83v.7h-2v-.7Zm0,0" transform="translate(109.85 61.99)"/><rect class="cls-1" x="205.17" y="110.24" width="5.17" height="5.17"/><rect class="cls-2" x="103.08" y="48.24" width="5.17" height="5.17" transform="translate(104.85 151.59) rotate(-45)"/><rect class="cls-1" x="205.17" y="118" width="5.17" height="5.17"/><rect class="cls-1" x="212.92" y="118" width="5.17" height="5.17"/><path d="M103.08,56" transform="translate(109.85 61.99)"/><path class="cls-2" d="M196.27,47.46H186.2a1,1,0,0,0-1,1.07v2.62h12V48.53a1,1,0,0,0-1-1.07Z" transform="translate(109.85 61.99)"/><path class="cls-1" d="M185.24,52.51h5.35v7h-4.45a1,1,0,0,1-.9-1.05Z" transform="translate(109.85 61.99)"/><rect class="cls-1" x="301.73" y="114.5" width="5.36" height="3"/><path class="cls-1" d="M191.88,56.84v2.6h4.45a.93.93,0,0,0,.91-.94V56.84Z" transform="translate(109.85 61.99)"/><path class="cls-11" d="M191.5,56.24" transform="translate(109.85 61.99)"/><path class="cls-2" d="M226.26,46.2h-1.18a.49.49,0,0,0-.49.4l-.31,1.53a.5.5,0,0,1-.32.37l-.41.17a.54.54,0,0,1-.21,0,.47.47,0,0,1-.28-.09l-1.3-.86a.5.5,0,0,0-.63.06l-.83.84a.49.49,0,0,0-.06.63l.86,1.29a.51.51,0,0,1,0,.49,3.56,3.56,0,0,0-.17.41.48.48,0,0,1-.38.32l-1.52.31a.49.49,0,0,0-.4.49v1.18a.49.49,0,0,0,.4.49l1.52.31a.48.48,0,0,1,.38.32,3.56,3.56,0,0,0,.17.41.51.51,0,0,1,0,.49l-.86,1.29a.49.49,0,0,0,.06.63l.83.84a.5.5,0,0,0,.63.06l1.3-.86a.47.47,0,0,1,.28-.09.54.54,0,0,1,.21,0l.41.17a.5.5,0,0,1,.32.37l.31,1.53a.49.49,0,0,0,.49.4h1.18a.51.51,0,0,0,.49-.4l.3-1.53a.52.52,0,0,1,.32-.37l.41-.17a.54.54,0,0,1,.22,0,.44.44,0,0,1,.27.09l1.3.86a.5.5,0,0,0,.63-.06l.83-.84a.5.5,0,0,0,.07-.63l-.87-1.29a.51.51,0,0,1,0-.49c.06-.14.12-.27.17-.41a.48.48,0,0,1,.37-.32l1.52-.31a.5.5,0,0,0,.41-.49V52.61a.5.5,0,0,0-.41-.49l-1.52-.31a.48.48,0,0,1-.37-.32c-.05-.14-.11-.27-.17-.41a.51.51,0,0,1,0-.49l.87-1.29a.5.5,0,0,0-.07-.63l-.83-.84a.5.5,0,0,0-.63-.06l-1.3.86a.44.44,0,0,1-.27.09.54.54,0,0,1-.22,0l-.41-.17a.52.52,0,0,1-.32-.37l-.3-1.53a.51.51,0,0,0-.49-.4Zm-.59,10.5a3.5,3.5,0,1,1,2.47-1,3.46,3.46,0,0,1-2.47,1Zm0,0" transform="translate(109.85 61.99)"/><circle class="cls-1" cx="335.51" cy="115.19" r="2"/><rect class="cls-1" x="265.28" y="108.94" width="12" height="12"/><path class="cls-2" d="M161,49.57h4.72V51.5H161Z" transform="translate(109.85 61.99)"/><path class="cls-2" d="M161,54.57h4.72V56.5H161Z" transform="translate(109.85 61.99)"/><polygon class="cls-2" points="268 111.04 269.46 112.56 267.95 114.02 266.49 112.5 268 111.04 268 111.04"/><rect class="cls-2" x="274.32" y="113.45" width="1.27" height="3.83"/><rect class="cls-2" x="157.07" y="54.31" width="2.11" height="2.11" transform="translate(115.76 187.36) rotate(-44)"/><path class="cls-2" d="M158.14,54.87" transform="translate(109.85 61.99)"/><path class="cls-2" d="M161.35,50.23v.7h-2v-.7Zm0,4.83v.7h-2v-.7Zm0,0" transform="translate(109.85 61.99)"/><rect class="cls-4" x="60.11" y="145.28" width="12" height="12"/><path class="cls-5" d="M-44.15,85.91h4.73v1.93h-4.73Z" transform="translate(109.85 61.99)"/><path class="cls-5" d="M-44.17,90.91h4.73v1.93h-4.73Z" transform="translate(109.85 61.99)"/><polygon class="cls-5" points="62.83 147.38 64.3 148.89 62.78 150.35 61.32 148.84 62.83 147.38 62.83 147.38"/><rect class="cls-5" x="69.16" y="149.79" width="1.27" height="3.83"/><rect class="cls-5" x="-48.09" y="90.64" width="2.11" height="2.11" transform="matrix(0.72, -0.69, 0.69, 0.72, 32.96, 55.05)"/><path class="cls-5" d="M-47,91.2" transform="translate(109.85 61.99)"/><path class="cls-5" d="M-43.82,86.56v.71h-2v-.71Zm0,4.83v.7h-2v-.7Zm0,0" transform="translate(109.85 61.99)"/><path class="cls-12" d="M195.85,170.88h24a0,0,0,0,1,0,0v24a24,24,0,0,1-24,24h0a24,24,0,0,1-24-24v0A24,24,0,0,1,195.85,170.88Z"/><rect class="cls-1" x="185.14" y="183.22" width="22" height="22"/><path class="cls-2" d="M85.54,126H94.2v3.53H85.54Z" transform="translate(109.85 61.99)"/><path class="cls-2" d="M85.5,135.2h8.66v3.54H85.5Z" transform="translate(109.85 61.99)"/><polygon class="cls-2" points="190.13 187.07 192.82 189.85 190.04 192.53 187.36 189.75 190.13 187.07 190.13 187.07"/><rect class="cls-2" x="201.73" y="191.49" width="2.32" height="7.01"/><rect class="cls-2" x="78.31" y="134.72" width="3.86" height="3.86" transform="translate(37.44 156.07) rotate(-44)"/><path class="cls-2" d="M80.25,135.74" transform="translate(109.85 61.99)"/><path class="cls-2" d="M86.15,127.24v1.29H82.42v-1.29Zm0,8.85v1.29H82.42v-1.29Zm0,0" transform="translate(109.85 61.99)"/><path class="cls-2" d="M91.88,199.82H73.42a1.86,1.86,0,0,0-1.77,2v4.81h22v-4.81a1.86,1.86,0,0,0-1.77-2Z" transform="translate(109.85 61.99)"/><path class="cls-1" d="M71.65,209.06h9.82v12.76H73.3a1.81,1.81,0,0,1-1.65-1.93Z" transform="translate(109.85 61.99)"/><rect class="cls-1" x="193.68" y="271.06" width="9.82" height="5.5"/><path class="cls-1" d="M83.83,217v4.76H92a1.68,1.68,0,0,0,1.65-1.71V217Z" transform="translate(109.85 61.99)"/><path class="cls-11" d="M83.14,215.91" transform="translate(109.85 61.99)"/><path class="cls-1" d="M352.41,46H350v1.2h1.8v2.4h-9.6v-2.4H344V46h-2.4a.6.6,0,0,0-.6.6v9.6a.6.6,0,0,0,.6.6h10.8a.6.6,0,0,0,.6-.6v-9.6A.6.6,0,0,0,352.41,46Zm-.6,9.6h-9.6v-4.8h9.6Zm-3-9.6h-3.6v1.2h3.6Z" transform="translate(109.85 61.99)"/><rect class="cls-2" x="458.66" y="106.77" width="1.2" height="3.6"/><rect class="cls-2" x="453.86" y="106.77" width="1.2" height="3.6"/><path class="cls-1" d="M365.44,45.16a5.32,5.32,0,1,0,3.32,9.47l.84-.84a5.32,5.32,0,0,0-4.16-8.63Zm3,8.19-.09.09a4.15,4.15,0,1,1,.09-.09Z" transform="translate(109.85 61.99)"/><rect class="cls-2" x="369.85" y="53.69" width="1.19" height="3.58" transform="translate(179.12 340.19) rotate(-45)"/><path class="cls-2" d="M340.81,72.94a6,6,0,0,1,8.84,8l-1.91-3.44h1.8a4.8,4.8,0,0,0-4.8-4.8A4.85,4.85,0,0,0,341.41,74Z" transform="translate(109.85 61.99)"/><path class="cls-1" d="M348.66,82a6,6,0,0,1-8.84-8l1.92,3.45h-1.8a4.8,4.8,0,0,0,8.12,3.46Z" transform="translate(109.85 61.99)"/><rect class="cls-1" x="469.87" y="143.15" width="3.74" height="2"/><rect class="cls-1" x="469.87" y="138.15" width="5.98" height="2"/><rect class="cls-1" x="469.87" y="133.15" width="12" height="2"/><path class="cls-2" d="M370.78,78.47l.69-.23.6,1-.55.48a2.41,2.41,0,0,1,0,1l.55.48-.6,1-.69-.24a2.4,2.4,0,0,1-.86.5l-.15.72h-1.2l-.14-.72a2.26,2.26,0,0,1-.86-.5l-.69.24-.6-1,.54-.48a2.8,2.8,0,0,1,0-1l-.54-.48.6-1,.69.23a2.46,2.46,0,0,1,.86-.5l.14-.71h1.2l.15.72a2.38,2.38,0,0,1,.86.49Zm-1.61,2.64a.85.85,0,1,0-.85-.85A.85.85,0,0,0,369.17,81.11Z" transform="translate(109.85 61.99)"/><circle class="cls-13" cx="391.17" cy="69.3" r="6.5"/><path class="cls-14" d="M281.32,1.3a6,6,0,1,1-6,6,6,6,0,0,1,6-6m0-1a7,7,0,1,0,7,7,7,7,0,0,0-7-7Z" transform="translate(109.85 61.99)"/><path class="cls-14" d="M283.9,4.5a.95.95,0,1,0,1,.94.95.95,0,0,0-1-.94Zm-5.09,1.89a.95.95,0,1,0,0-1.89.95.95,0,1,0,0,1.89Zm2.34,2.1a3.83,3.83,0,0,0-3.21,1.75.49.49,0,0,0,.41.76h0a.48.48,0,0,0,.4-.2,2.84,2.84,0,0,1,4.75,0,.47.47,0,0,0,.39.2h0a.49.49,0,0,0,.41-.76,3.85,3.85,0,0,0-3.21-1.75Zm0,0" transform="translate(109.85 61.99)"/><circle class="cls-15" cx="412.66" cy="68.99" r="6.5"/><path class="cls-16" d="M302.81,1a6,6,0,1,1-6,6,6,6,0,0,1,6-6m0-1a7,7,0,1,0,7,7,7,7,0,0,0-7-7Z" transform="translate(109.85 61.99)"/><path class="cls-16" d="M305.29,4.28l1,1-4.46,4.45-2.47-2.47,1-1,1.49,1.48Zm0,0" transform="translate(109.85 61.99)"/><rect class="cls-1" x="395.78" y="128.09" width="9" height="1.25"/><polygon class="cls-2" points="409.78 128.72 404.78 133.72 404.78 123.72 409.78 128.72"/><path class="cls-17" d="M182.64,200.47h20.7v20.7h-20.7Z" transform="translate(109.85 61.99)"/><path class="cls-1" d="M202.19,222.32H186.66a4,4,0,0,1-4-4V202.77a3.44,3.44,0,0,1,3.45-3.45h16.1a1.16,1.16,0,0,1,1.15,1.15v20.7A1.15,1.15,0,0,1,202.19,222.32Z" transform="translate(109.85 61.99)"/><path class="cls-2" d="M201,220v-3.45H186.66a1.73,1.73,0,0,0,0,3.45Z" transform="translate(109.85 61.99)"/><polygon class="cls-2" points="300.53 263.62 300.53 272.81 304.56 270.51 308.58 272.81 308.58 263.62 300.53 263.62"/><path class="cls-1" d="M335.59,199.32l5.75,5.75v16.11a1.15,1.15,0,0,1-1.15,1.14H321.78a1.14,1.14,0,0,1-1.14-1.14V200.46a1.14,1.14,0,0,1,1.14-1.14Z" transform="translate(109.85 61.99)"/><circle class="cls-2" cx="440.83" cy="269.49" r="3.38"/><path class="cls-18" d="M324.93,217.53H337a6.09,6.09,0,0,0-12.11,0Z" transform="translate(109.85 61.99)"/><path class="cls-18" d="M259,220.17v-4c0-1.54,1.2-2.75,3-3.45a10.27,10.27,0,0,0-9.62,1.36A9.61,9.61,0,0,0,259,220.17Z" transform="translate(109.85 61.99)"/><path class="cls-18" d="M269.63,215.78c-.47-.64-2.05-1.3-4.06-1.3-2.4,0-4.2,1-4.2,1.68v4.32A9.61,9.61,0,0,0,269.63,215.78Z" transform="translate(109.85 61.99)"/><circle class="cls-2" cx="368.28" cy="269.57" r="2.7"/><circle class="cls-2" cx="375.42" cy="271.07" r="2.4"/><circle class="cls-2" cx="402.83" cy="267.06" r="5.75"/><path class="cls-1" d="M291.73,212.34h2.51a10.05,10.05,0,0,1,8.81,10H282.92A10.06,10.06,0,0,1,291.73,212.34Z" transform="translate(109.85 61.99)"/><rect class="cls-18" x="401.58" y="274.33" width="2.61" height="7.49"/><path class="cls-12" d="M263.85,170.88h24a0,0,0,0,1,0,0v24a24,24,0,0,1-24,24h0a24,24,0,0,1-24-24v0A24,24,0,0,1,263.85,170.88Z"/><circle class="cls-2" cx="263.77" cy="187.78" r="6"/><path class="cls-1" d="M152.61,133.37h2.62a10.5,10.5,0,0,1,9.19,10.42h-21A10.5,10.5,0,0,1,152.61,133.37Z" transform="translate(109.85 61.99)"/><rect class="cls-18" x="262.46" y="195.36" width="2.72" height="7.82"/><path class="cls-12" d="M331.85,170.88h24a0,0,0,0,1,0,0v24a24,24,0,0,1-24,24h0a24,24,0,0,1-24-24v0a24,24,0,0,1,24-24Z"/><path class="cls-12" d="M133.85,171.54h24a0,0,0,0,1,0,0v24a24,24,0,0,1-24,24h0a24,24,0,0,1-24-24v0a24,24,0,0,1,24-24Z"/><path class="cls-12" d="M399.85,170.88h24a0,0,0,0,1,0,0v24a24,24,0,0,1-24,24h0a24,24,0,0,1-24-24v0a24,24,0,0,1,24-24Z"/><path class="cls-12" d="M467.85,170.88h24a0,0,0,0,1,0,0v24a24,24,0,0,1-24,24h0a24,24,0,0,1-24-24v0A24,24,0,0,1,467.85,170.88Z"/><path class="cls-12" d="M535.85,170.88h24a0,0,0,0,1,0,0v24a24,24,0,0,1-24,24h0a24,24,0,0,1-24-24v0A24,24,0,0,1,535.85,170.88Z"/><path class="cls-12" d="M603.85,170.88h24a0,0,0,0,1,0,0v24a24,24,0,0,1-24,24h0a24,24,0,0,1-24-24v0a24,24,0,0,1,24-24Z"/><path class="cls-12" d="M671.85,170.88h24a0,0,0,0,1,0,0v24a24,24,0,0,1-24,24h0a24,24,0,0,1-24-24v0a24,24,0,0,1,24-24Z"/><rect class="cls-1" x="326" y="262.46" width="23" height="20.7" rx="1.15"/><polygon class="cls-2" points="342.63 276.88 346.7 272.81 342.63 268.75 341.01 270.38 343.45 272.81 341.01 275.25 342.63 276.88"/><polygon class="cls-2" points="331.55 272.81 333.99 270.38 332.37 268.75 328.3 272.81 332.37 276.88 333.99 275.25 331.55 272.81"/><polygon class="cls-18" points="336.63 278.56 340.82 267.06 338.37 267.06 334.18 278.56 336.63 278.56"/><path class="cls-1" d="M374.27,212.77c-5.62-2.51-11.67,2.55-8.79,8.79h-13a1.14,1.14,0,0,1-1.15-1.15V200.05a1.15,1.15,0,0,1,1.15-1.15h20.66a1.15,1.15,0,0,1,1.14,1.15Z" transform="translate(109.85 61.99)"/><polygon class="cls-2" points="472.7 271.38 465.7 265.43 464.28 267.09 472.72 274.25 481 267.09 479.57 265.43 472.71 271.38 472.7 271.38"/><path class="cls-2" d="M367.76,219a3.45,3.45,0,0,1,0-1.2l-1.1-.64,1.09-1.89,1.11.64a3.13,3.13,0,0,1,1-.6v-1.28h2.19v1.28a3.28,3.28,0,0,1,1,.6l1.11-.64,1.09,1.89-1.11.64a3.45,3.45,0,0,1,0,1.2l1.11.64-1.09,1.89-1.11-.64a3.28,3.28,0,0,1-1,.6v1.28h-2.19v-1.28a3.13,3.13,0,0,1-1-.6l-1.11.64-1.09-1.89Z" transform="translate(109.85 61.99)"/><circle class="cls-19" cx="480.84" cy="280.41" r="1.09"/><path class="cls-1" d="M108.7,296.34a.62.62,0,0,0-.66-.57H98.79a.61.61,0,0,0-.66.57v10.38a.62.62,0,0,0,.66.58H108a.63.63,0,0,0,.66-.58Z" transform="translate(109.85 61.99)"/><polygon class="cls-2" points="216.19 366.36 216.19 364.37 212.48 364.37 212.48 362.69 216.19 362.69 216.19 360.7 219.97 363.52 216.19 366.36"/><path class="cls-1" d="M80.32,296.13l2.7,2.71V307a.63.63,0,0,1-.64.63H72.18a.64.64,0,0,1-.64-.63V296.77a.64.64,0,0,1,.64-.64Z" transform="translate(109.85 61.99)"/><polygon class="cls-2" points="193.39 359.09 187.74 364.73 186.27 364.73 186.27 363.25 191.91 357.61 193.39 359.09"/><path class="cls-8" d="M135.93,304.91l-1.07-.29.43-1.63a6,6,0,0,1-1.79-1l-1.19,1.2-.79-.79,1.2-1.19a6.08,6.08,0,0,1-1.32-2.81l1.09-.2a5,5,0,0,0,9.82,0l1.09.2a6.07,6.07,0,0,1-1.31,2.81l1.19,1.19-.78.79-1.2-1.2a6,6,0,0,1-1.79,1l.44,1.63-1.07.29-.44-1.63a6.53,6.53,0,0,1-2.07,0Z" transform="translate(109.85 61.99)"/><path class="cls-8" d="M171.4,296.53a6.52,6.52,0,0,0-6.37,5,6.59,6.59,0,0,0,12.79,0A6.57,6.57,0,0,0,171.4,296.53Zm0,8a3,3,0,1,1,3-3A3,3,0,0,1,171.4,304.53Z" transform="translate(109.85 61.99)"/><circle class="cls-1" cx="331.85" cy="193.78" r="13"/><path class="cls-18" d="M219.4,141.86v-4.35c0-1.67,1.29-3,3.21-3.73a10.84,10.84,0,0,0-3.86-.69,11,11,0,0,0-6.56,2.15A10.42,10.42,0,0,0,219.4,141.86Z" transform="translate(109.85 61.99)"/><path class="cls-18" d="M230.94,137.1c-.51-.69-2.22-1.41-4.39-1.41-2.61,0-4.55,1-4.55,1.82v4.68A10.4,10.4,0,0,0,230.94,137.1Z" transform="translate(109.85 61.99)"/><circle class="cls-2" cx="328.66" cy="190.21" r="2.92"/><circle class="cls-2" cx="336.4" cy="191.83" r="2.6"/><path class="cls-2" d="M299.23,121.88H280.77a1.86,1.86,0,0,0-1.77,2v4.81h22v-4.81a1.86,1.86,0,0,0-1.77-2Z" transform="translate(109.85 61.99)"/><path class="cls-1" d="M279,131.12h9.82v12.76h-8.17A1.8,1.8,0,0,1,279,142Z" transform="translate(109.85 61.99)"/><rect class="cls-1" x="401.03" y="193.12" width="9.82" height="5.5"/><path class="cls-1" d="M291.18,139.07v4.76h8.17a1.68,1.68,0,0,0,1.65-1.71v-3.05Z" transform="translate(109.85 61.99)"/><path class="cls-11" d="M290.49,138" transform="translate(109.85 61.99)"/><path class="cls-17" d="M347.65,122.53h20.7v20.7h-20.7Z" transform="translate(109.85 61.99)"/><path class="cls-1" d="M367.2,144.38H351.67a4,4,0,0,1-4-4V124.83a3.45,3.45,0,0,1,3.45-3.45h16.1a1.15,1.15,0,0,1,1.15,1.15v20.7A1.14,1.14,0,0,1,367.2,144.38Z" transform="translate(109.85 61.99)"/><path class="cls-2" d="M366.05,142.08v-3.45H351.67a1.73,1.73,0,0,0,0,3.45Z" transform="translate(109.85 61.99)"/><polygon class="cls-2" points="465.55 185.68 465.55 194.88 469.57 192.58 473.6 194.88 473.6 185.68 465.55 185.68"/><rect class="cls-1" x="523.85" y="184.08" width="24" height="21.6" rx="1.2"/><polygon class="cls-2" points="541.2 199.12 545.45 194.88 541.2 190.63 539.51 192.33 542.05 194.88 539.51 197.42 541.2 199.12"/><polygon class="cls-2" points="529.64 194.88 532.19 192.33 530.49 190.63 526.25 194.88 530.49 199.12 532.19 197.42 529.64 194.88"/><polygon class="cls-18" points="534.94 200.88 539.31 188.88 536.75 188.88 532.39 200.88 534.94 200.88"/><path class="cls-1" d="M498.67,120.07l5.83,5.83v16.35a1.15,1.15,0,0,1-1.16,1.15H484.66a1.17,1.17,0,0,1-1.16-1.15v-21a1.16,1.16,0,0,1,1.16-1.16Z" transform="translate(109.85 61.99)"/><circle class="cls-2" cx="603.85" cy="190.36" r="3.43"/><path class="cls-18" d="M487.86,138.54h12.28a6.18,6.18,0,0,0-12.28,0Z" transform="translate(109.85 61.99)"/><path class="cls-1" d="M574.16,134.81c-5.62-2.51-11.67,2.55-8.79,8.79h-13a1.15,1.15,0,0,1-1.15-1.15V122.09a1.14,1.14,0,0,1,1.15-1.15H573a1.14,1.14,0,0,1,1.14,1.15Z" transform="translate(109.85 61.99)"/><polygon class="cls-2" points="672.6 193.41 665.59 187.46 664.17 189.13 672.61 196.29 680.89 189.12 679.47 187.47 672.6 193.41 672.6 193.41"/><path class="cls-2" d="M567.65,141.05a3.45,3.45,0,0,1,0-1.2l-1.1-.64,1.09-1.89,1.11.64a3.25,3.25,0,0,1,1-.6v-1.28H572v1.28a3.37,3.37,0,0,1,1,.6l1.11-.64,1.09,1.89-1.11.64a3.45,3.45,0,0,1,0,1.2l1.11.64-1.09,1.89-1.11-.64a3.31,3.31,0,0,1-1,.61v1.27h-2.18v-1.27a3.2,3.2,0,0,1-1-.61l-1.11.64-1.09-1.89Z" transform="translate(109.85 61.99)"/><circle class="cls-19" cx="680.73" cy="202.45" r="1.09"/><rect class="cls-1" x="122.85" y="186.22" width="8.13" height="8.13"/><rect class="cls-2" x="25.19" y="124.23" width="8.13" height="8.13" transform="translate(27.7 120.25) rotate(-45)"/><rect class="cls-1" x="122.85" y="198.42" width="8.13" height="8.13"/><rect class="cls-1" x="135.04" y="198.42" width="8.13" height="8.13"/><path d="M25.19,136.42" transform="translate(109.85 61.99)"/><rect class="cls-1" x="255.5" y="263.5" width="8.13" height="8.13"/><rect class="cls-2" x="157.84" y="201.5" width="8.13" height="8.13" transform="translate(11.91 236.67) rotate(-45)"/><rect class="cls-1" x="255.5" y="275.69" width="8.13" height="8.13"/><rect class="cls-1" x="267.69" y="275.69" width="8.13" height="8.13"/><path d="M157.84,213.69" transform="translate(109.85 61.99)"/><rect class="cls-1" x="219.83" y="261.81" width="22" height="22"/><path class="cls-2" d="M120.23,204.63h8.66v3.54h-8.66Z" transform="translate(109.85 61.99)"/><path class="cls-2" d="M120.2,213.8h8.66v3.54H120.2Z" transform="translate(109.85 61.99)"/><polygon class="cls-2" points="224.83 265.66 227.51 268.44 224.73 271.12 222.05 268.34 224.83 265.66 224.83 265.66"/><rect class="cls-2" x="236.42" y="270.08" width="2.32" height="7.01"/><rect class="cls-2" x="113" y="213.31" width="3.86" height="3.86" transform="translate(-7.41 202.22) rotate(-44)"/><path class="cls-2" d="M115,214.33" transform="translate(109.85 61.99)"/><path class="cls-2" d="M120.84,205.83v1.29h-3.73v-1.29Zm0,8.85V216h-3.73v-1.29Zm0,0" transform="translate(109.85 61.99)"/><polygon class="cls-1" points="335.17 360.76 337.76 363.36 331.7 369.41 329.11 369.41 329.11 366.82 335.17 360.76 335.17 360.76"/><path class="cls-18" d="M226.18,297.9l1.3-1.3a.62.62,0,0,1,.87,0l1.73,1.73a.62.62,0,0,1,0,.87l-1.3,1.29Z" transform="translate(109.85 61.99)"/><path class="cls-1" d="M252.39,300.44v7.64a.57.57,0,0,1-.6.54h-8.4a.57.57,0,0,1-.6-.54v-7.64h-1.2v-1.09h12v1.09Z" transform="translate(109.85 61.99)"/><rect class="cls-18" x="354.44" y="358.62" width="6" height="1.76"/><path class="cls-20" d="M278.15,304.7l6.5-6.5,1,1-7.5,7.5-4.5-4.5,1-1Z" transform="translate(109.85 61.99)"/><circle class="cls-1" cx="416.94" cy="364.67" r="9"/><polygon class="cls-2" points="416.94 363.4 414.39 360.86 413.12 362.13 415.67 364.67 413.12 367.22 414.39 368.49 416.94 365.95 419.48 368.49 420.76 367.22 418.21 364.67 420.76 362.13 419.48 360.86 416.94 363.4"/><circle class="cls-1" cx="446.01" cy="364.67" r="10"/><polygon class="cls-18" points="446.01 363.26 443.19 360.43 441.77 361.85 444.6 364.67 441.77 367.5 443.19 368.92 446.01 366.09 448.84 368.92 450.26 367.5 447.43 364.67 450.26 361.85 448.84 360.43 446.01 363.26"/></svg>