<svg id="图层_1" data-name="图层 1" xmlns="http://www.w3.org/2000/svg" width="24" height="24" viewBox="0 0 24 24"><defs><style>.cls-1{fill:none;}.cls-2{fill:#b6c2cd;}.cls-3{fill:#324558;}</style></defs><path class="cls-1" d="M1.2,1.2H22.8V22.8H1.2Z"/><path class="cls-2" d="M21.6,24H5.4a4.2,4.2,0,0,1-4.2-4.2V3.6A3.6,3.6,0,0,1,4.8,0H21.6a1.2,1.2,0,0,1,1.2,1.2V22.8A1.2,1.2,0,0,1,21.6,24Z"/><path class="cls-3" d="M20.4,21.6V18H5.4a1.8,1.8,0,0,0,0,3.6Z"/><polygon class="cls-3" points="9.6 2.4 9.6 12 13.8 9.6 18 12 18 2.4 9.6 2.4"/></svg>