<svg id="图层_1" data-name="图层 1" xmlns="http://www.w3.org/2000/svg" width="48" height="48" viewBox="0 0 48 48"><defs><style>.cls-1{fill:#eff4f9;}.cls-2{fill:none;}.cls-3{fill:#b6c2cd;}.cls-4{fill:#324558;}</style></defs><path class="cls-1" d="M24,0H48a0,0,0,0,1,0,0V24A24,24,0,0,1,24,48h0A24,24,0,0,1,0,24v0A24,24,0,0,1,24,0Z"/><path class="cls-2" d="M13.2,13.2H34.8V34.8H13.2Z"/><path class="cls-3" d="M33.6,36H17.4a4.2,4.2,0,0,1-4.2-4.2V15.6A3.6,3.6,0,0,1,16.8,12H33.6a1.2,1.2,0,0,1,1.2,1.2V34.8A1.2,1.2,0,0,1,33.6,36Z"/><path class="cls-4" d="M32.4,33.6V30h-15a1.8,1.8,0,0,0,0,3.6Z"/><polygon class="cls-4" points="21.6 14.4 21.6 24 25.8 21.6 30 24 30 14.4 21.6 14.4"/></svg>