<svg id="_1" data-name="1" xmlns="http://www.w3.org/2000/svg" viewBox="0 0 18.33 31.42"><defs><style>.cls-2{fill:#47b2fe}</style></defs><path class="cls-2" d="M3.49 4.36v8.29L.87 15.27 0 14.4V3.05zM0 28.36V17l.87-.88 2.62 2.62v8.29zm15.27 3.06H2.18A2.81 2.81 0 010 29.24l3.49-1.31H14zM14 3.49H3.54L0 2.18A2.8 2.8 0 012.23 0h13zm.88 9.16V3.49L16.15 0a2.81 2.81 0 012.18 2.18V14.4l-.87.87zm2.62 3.49l.87.88v12.22a2.81 2.81 0 01-2.18 2.18l-1.31-3.49v-9.17z" opacity=".1"/><path class="cls-2" d="M15.27 31.42H2.18A2.81 2.81 0 010 29.24l3.49-1.31H14zM14 3.49H3.53L0 2.18A2.8 2.8 0 012.23 0h13zM14.84 14l1.74 1.75-1.74 1.74H3.49l-1.74-1.78L3.49 14zm0-1.31v-9.2L16.15 0a2.81 2.81 0 012.18 2.18V14.4l-.87.87zm2.62 3.5l.87.87v12.18a2.81 2.81 0 01-2.18 2.18l-1.31-3.49v-9.17z"/></svg>