<svg id="图层_1" data-name="图层 1" xmlns="http://www.w3.org/2000/svg" width="48" height="48" viewBox="0 0 48 48"><defs><style>.cls-1{fill:#eff4f9;}.cls-2{fill:#b6c2cd;}.cls-3,.cls-4{fill:#324558;}.cls-4{opacity:0.6;}</style></defs><path class="cls-1" d="M24,0H48a0,0,0,0,1,0,0V24A24,24,0,0,1,24,48h0A24,24,0,0,1,0,24v0A24,24,0,0,1,24,0Z"/><path class="cls-2" d="M32.4,27.6v7.2A1.2,1.2,0,0,1,31.2,36H16.8a1.2,1.2,0,0,1-1.2-1.2V27.6a1.2,1.2,0,0,1,1.2-1.2h5.09v3.2h4.17V26.4H31.2A1.2,1.2,0,0,1,32.4,27.6Z"/><path class="cls-3" d="M12.61,20.2a12,12,0,0,1,22.78,0L33.11,21a9.6,9.6,0,0,0-18.22,0l-2.28-.76Z"/><path class="cls-4" d="M17.17,21.72a7.2,7.2,0,0,1,13.66,0l-2.27.76a4.81,4.81,0,0,0-9.12,0Z"/><rect class="cls-3" x="22.89" y="22.8" width="2.22" height="5.69"/></svg>