<svg id="图层_1" data-name="图层 1" xmlns="http://www.w3.org/2000/svg" width="24" height="24" viewBox="0 0 24 24"><defs><style>.cls-1{fill:#b6c2cd;}.cls-2,.cls-3{fill:#324558;}.cls-3{opacity:0.6;}</style></defs><path class="cls-1" d="M20.4,15.6v7.2A1.2,1.2,0,0,1,19.2,24H4.8a1.2,1.2,0,0,1-1.2-1.2V15.6a1.2,1.2,0,0,1,1.2-1.2H9.89v3.2h4.17V14.4H19.2A1.2,1.2,0,0,1,20.4,15.6Z"/><path class="cls-2" d="M.61,8.2a12,12,0,0,1,22.78,0L21.11,9A9.6,9.6,0,0,0,2.89,9L.61,8.2Z"/><path class="cls-3" d="M5.17,9.72a7.2,7.2,0,0,1,13.66,0l-2.27.76a4.81,4.81,0,0,0-9.12,0Z"/><rect class="cls-2" x="10.89" y="10.8" width="2.22" height="5.69"/></svg>