<svg xmlns="http://www.w3.org/2000/svg" width="10.8" height="12" viewBox="0 0 10.8 12"><defs><style>.cls-1{fill:#b6c2cd;}.cls-2{fill:#324558;opacity:0.6;}</style></defs><g id="图层_2" data-name="图层 2"><g id="图层_1-2" data-name="图层 1"><path class="cls-1" d="M10.2,0H3a.6.6,0,0,0-.6.6V2.4H.61A.6.6,0,0,0,0,3v8.4H0a.6.6,0,0,0,.6.6H7.8a.6.6,0,0,0,.6-.6V9.6h1.8a.6.6,0,0,0,.6-.6V.6A.6.6,0,0,0,10.2,0ZM9.6,8.4H8.4v-6H3.6V1.2h6Z"/><rect class="cls-2" x="2.4" y="5.4" width="3.6" height="1.2"/><rect class="cls-2" x="2.4" y="7.8" width="3.6" height="1.2"/></g></g></svg>