<svg xmlns="http://www.w3.org/2000/svg" width="12" height="12" viewBox="0 0 12 12"><defs><style>.cls-1{fill:#324558;}.cls-2{fill:#b6c2cd;}</style></defs><g id="图层_2" data-name="图层 2"><g id="图层_1-2" data-name="图层 1"><path class="cls-1" d="M9.47,8.63,12,11.16l-.84.84L8.63,9.47a5.31,5.31,0,1,1,.84-.84Z"/><path class="cls-2" d="M8.66,4.14A3.55,3.55,0,0,0,1.77,5.32H3A2.37,2.37,0,0,1,5.32,3a2.31,2.31,0,0,1,1.12.29l-.53.9Z"/><path class="cls-2" d="M8.86,5.32H7.68A2.36,2.36,0,0,1,5.32,7.68a2.32,2.32,0,0,1-1.13-.29l.54-.89H2A3.55,3.55,0,0,0,8.86,5.32Z"/></g></g></svg>