<svg id="图层_1" data-name="图层 1" xmlns="http://www.w3.org/2000/svg" width="12" height="12" viewBox="0 0 12 12"><defs><style>.cls-1{fill:#b6c2cd;}.cls-2{opacity:0.6;}.cls-3{fill:#324558;}</style></defs><circle class="cls-1" cx="6" cy="6" r="6"/><g class="cls-2"><path class="cls-3" d="M8.71,4.93H7.18a.09.09,0,0,1-.09-.11c.58-2.25-.47-2.37-.47-2.37-.46,0-.36.37-.4.42a2.91,2.91,0,0,1-1.13,2A.21.21,0,0,0,5,5V8.2c0,.32.44.44.61.44H8.09c.23,0,.42-.61.42-.61a12.29,12.29,0,0,0,.62-2.7.39.39,0,0,0-.42-.4Zm-4.39,0h-1a.2.2,0,0,0-.2.2l.2,3.3a.21.21,0,0,0,.21.21H4.4c.17,0,.17-.14.17-.14V5.19a.24.24,0,0,0-.25-.25Zm0,0"/></g></svg>