<svg id="图层_1" data-name="图层 1" xmlns="http://www.w3.org/2000/svg" width="12" height="12" viewBox="0 0 12 12"><defs><style>.cls-1{fill:#b6c2cd;}.cls-2{fill:#324558;}</style></defs><rect class="cls-1" y="10" width="3.74" height="2"/><rect class="cls-1" y="5" width="5.98" height="2"/><rect class="cls-1" width="12" height="2"/><path class="cls-2" d="M10.75,7.32l.7-.24.6,1-.55.48a2.41,2.41,0,0,1,0,1l.55.48-.6,1-.7-.23a2.3,2.3,0,0,1-.86.49l-.14.72H8.55l-.15-.72a2.46,2.46,0,0,1-.86-.49l-.69.23-.6-1L6.8,9.6a2.41,2.41,0,0,1,0-1l-.55-.48.6-1,.69.24a2.26,2.26,0,0,1,.86-.5l.15-.72h1.2l.14.72a2.32,2.32,0,0,1,.86.5ZM9.15,10A.85.85,0,1,0,8.3,9.1.85.85,0,0,0,9.15,10Z"/></svg>