<svg id="图层_1" data-name="图层 1" xmlns="http://www.w3.org/2000/svg" width="12" height="12" viewBox="0 0 12 12"><defs><style>.cls-1{fill:#b6c2cd;}.cls-2{fill:#324558;opacity:0.6;}</style></defs><path class="cls-1" d="M4.44,5.78H5.6A2.39,2.39,0,0,1,8,8.18H4.26v.53H8.53V8.18a3,3,0,0,0-.47-1.6H9.59A2.66,2.66,0,0,1,12,8.1a7,7,0,0,1-5.6,2.74A7.66,7.66,0,0,1,2.66,10V5A3.64,3.64,0,0,1,4.44,5.78Z"/><path class="cls-2" d="M1.6,4.45a.53.53,0,0,1,.53.47V9.77a.54.54,0,0,1-.53.54H.53A.54.54,0,0,1,0,9.77V5a.53.53,0,0,1,.53-.53Z"/><path class="cls-2" d="M6.74,1.55l.19.19.19-.19A1.33,1.33,0,0,1,9,3.43H9L6.93,5.51,4.86,3.44A1.33,1.33,0,1,1,6.73,1.55Z"/></svg>