<svg xmlns="http://www.w3.org/2000/svg" width="12" height="12" viewBox="0 0 12 12"><defs><style>.cls-1{fill:#324558;opacity:0.6;}.cls-2{fill:#b6c2cd;}</style></defs><g id="图层_2" data-name="图层 2"><g id="图层_1-2" data-name="图层 1"><polygon class="cls-1" points="6 8.4 7.8 12 4.2 12 6 8.4"/><path class="cls-1" d="M4.42,8.55a3,3,0,1,1,3.16,0L6.76,6.93a1.2,1.2,0,1,0-1.69-.17,1.37,1.37,0,0,0,.17.17L4.42,8.55Z"/><path class="cls-2" d="M3.08,11.24a6,6,0,1,1,5.84,0l-.8-1.61A4.2,4.2,0,1,0,2.37,8.12,4.31,4.31,0,0,0,3.89,9.63Z"/></g></g></svg>