<svg id="图层_1" data-name="图层 1" xmlns="http://www.w3.org/2000/svg" width="48" height="48" viewBox="0 0 48 48"><defs><style>.cls-1{fill:#eff4f9;}.cls-2{fill:#324558;}.cls-3{fill:#b6c2cd;}</style></defs><path class="cls-1" d="M24,0H48a0,0,0,0,1,0,0V24A24,24,0,0,1,24,48h0A24,24,0,0,1,0,24v0A24,24,0,0,1,24,0Z"/><path class="cls-2" d="M34.07,12H13.93A2,2,0,0,0,12,14.13v5.24H36V14.13A2,2,0,0,0,34.07,12Z"/><path class="cls-3" d="M12,22.08H22.71V36H13.8A2,2,0,0,1,12,33.89Z"/><rect class="cls-3" x="25.29" y="22.08" width="10.71" height="6"/><path class="cls-3" d="M25.29,30.75V36H34.2A1.84,1.84,0,0,0,36,34.08V30.75Z"/></svg>