<svg id="图层_1" data-name="图层 1" xmlns="http://www.w3.org/2000/svg" width="24" height="24" viewBox="0 0 24 24"><defs><style>.cls-1{fill:#b6c2cd;}.cls-2{fill:#324558;}.cls-3{fill:#e2e7eb;}</style></defs><path class="cls-1" d="M23,14c-5.62-2.51-11.67,2.55-8.79,8.79h-13A1.14,1.14,0,0,1,0,21.59V1.23A1.15,1.15,0,0,1,1.15.08H21.81A1.15,1.15,0,0,1,23,1.23Z"/><polygon class="cls-2" points="11.54 10.56 4.53 4.61 3.12 6.28 11.55 13.44 19.84 6.27 18.41 4.62 11.54 10.56 11.54 10.56"/><path class="cls-2" d="M16.45,20.2a3,3,0,0,1,0-1.2l-1.11-.64,1.09-1.89,1.11.64a3.08,3.08,0,0,1,1-.6V15.23h2.18v1.28a3.18,3.18,0,0,1,1,.6l1.11-.64L24,18.36,22.89,19a3,3,0,0,1,0,1.2l1.11.64-1.09,1.89-1.11-.64a3.28,3.28,0,0,1-1,.6V24H18.58V22.69a3.18,3.18,0,0,1-1-.6l-1.11.64-1.09-1.89Z"/><circle class="cls-3" cx="19.67" cy="19.6" r="1.09"/></svg>