<svg id="图层_1" data-name="图层 1" xmlns="http://www.w3.org/2000/svg" width="48" height="48" viewBox="0 0 48 48"><defs><style>.cls-1{fill:#eff4f9;}.cls-2{fill:#b6c2cd;}.cls-3{fill:#324558;}.cls-4{fill:#e2e7eb;}</style></defs><path class="cls-1" d="M24,0H48a0,0,0,0,1,0,0V24A24,24,0,0,1,24,48h0A24,24,0,0,1,0,24v0A24,24,0,0,1,24,0Z"/><path class="cls-2" d="M36.16,25.93c-5.62-2.51-11.67,2.54-8.79,8.79h-13a1.15,1.15,0,0,1-1.15-1.15V13.21a1.14,1.14,0,0,1,1.15-1.15H35a1.14,1.14,0,0,1,1.14,1.15Z"/><polygon class="cls-3" points="24.75 22.54 17.74 16.59 16.33 18.25 24.76 25.41 33.05 18.25 31.62 16.59 24.75 22.54 24.75 22.54"/><path class="cls-3" d="M29.65,32.17a3.45,3.45,0,0,1,0-1.2l-1.1-.64,1.09-1.89,1.11.64a3.25,3.25,0,0,1,1-.6V27.2H34v1.28a3.37,3.37,0,0,1,1,.6l1.11-.64,1.09,1.89L36.1,31a3.45,3.45,0,0,1,0,1.2l1.11.64L36.12,34.7,35,34.06a3.1,3.1,0,0,1-1,.6v1.28H31.79V34.66a3,3,0,0,1-1-.6l-1.11.64-1.09-1.89Z"/><circle class="cls-4" cx="32.88" cy="31.57" r="1.09"/></svg>