<svg id="图层_1" data-name="图层 1" xmlns="http://www.w3.org/2000/svg" width="14" height="14" viewBox="0 0 14 14"><defs><style>.cls-1{opacity:0.5;}.cls-2{fill:#fff;}</style></defs><g class="cls-1"><path class="cls-2" d="M13.67,13.52a.74.74,0,0,1-.72.76H3.56a3,3,0,0,1-2.89-3v-8a3,3,0,0,1,2.89-3H13a.74.74,0,0,1,.72.75V9.75H3.56a1.51,1.51,0,0,0,0,3H13.67Z"/><path class="cls-2" d="M13,12H3.56a.76.76,0,0,1,0-1.51H13Z"/></g><polygon class="cls-2" points="4.17 4.94 6.42 4.94 6.42 7.94 7.92 7.94 7.92 4.94 10.17 4.94 7.17 1.94 4.17 4.94"/></svg>