<svg id="图层_1" data-name="图层 1" xmlns="http://www.w3.org/2000/svg" width="14" height="14" viewBox="0 0 14 14"><defs><style>.cls-1{fill:#242e42;}.cls-2,.cls-3{fill:#fff;}.cls-2{opacity:0.5;}</style></defs><rect class="cls-1" x="-446.19" y="-7.08" width="597.67" height="35.33"/><path class="cls-2" d="M13.5,13.25a.74.74,0,0,1-.72.75H3.39A3,3,0,0,1,.5,11V3A3,3,0,0,1,3.39,0h9.39a.74.74,0,0,1,.72.75V9.48H3.39a1.51,1.51,0,0,0,0,3H13.5Z"/><path class="cls-3" d="M12.78,11.74H3.39a.76.76,0,0,1,0-1.51h9.39Z"/><polygon class="cls-3" points="4 4.67 6.25 4.67 6.25 7.67 7.75 7.67 7.75 4.67 10 4.67 7 1.67 4 4.67"/></svg>