<svg id="图层_1" data-name="图层 1" xmlns="http://www.w3.org/2000/svg" width="14" height="14" viewBox="0 0 14 14"><defs><style>.cls-1{fill:#b6c2cd;}.cls-2{fill:#324558;}</style></defs><circle class="cls-1" cx="7" cy="7" r="7"/><path class="cls-2" d="M7,2.1A4.9,4.9,0,0,0,2.1,7a4.83,4.83,0,0,0,1.33,3.35l.11.11,1-1A3.51,3.51,0,0,1,7,3.5a3.44,3.44,0,0,1,.91.12L9,2.53A4.79,4.79,0,0,0,7,2.1Z"/><path class="cls-2" d="M11.47,5,10.38,6.09A3.44,3.44,0,0,1,10.5,7a3.52,3.52,0,0,1-1,2.48l1,1A4.93,4.93,0,0,0,11.9,7,4.79,4.79,0,0,0,11.47,5Z"/><path class="cls-2" d="M10,3,7.36,5.65A1.36,1.36,0,0,0,7,5.6,1.4,1.4,0,1,0,8.4,7a1.36,1.36,0,0,0-.05-.36L11,4,10,3Z"/></svg>