<svg id="图层_1" data-name="图层 1" xmlns="http://www.w3.org/2000/svg" width="14" height="14" viewBox="0 0 14 14"><defs><style>.cls-1{fill:#b6c2cd;}.cls-2{fill:#324558;}</style></defs><path class="cls-1" d="M7.29,1.87h6a.7.7,0,0,1,.7.7v9.8a.7.7,0,0,1-.7.7H.7a.7.7,0,0,1-.7-.7V1.17A.7.7,0,0,1,.7.47H5.89Z"/><path class="cls-2" d="M9.59,7.12H9.27V6.8a2.27,2.27,0,0,0-4.54,0v.32H4.41a.32.32,0,0,0-.32.33v3.23a.32.32,0,0,0,.32.33H9.59a.32.32,0,0,0,.32-.33V7.45A.32.32,0,0,0,9.59,7.12ZM7.32,9.71H6.68V8.42h.64Zm1.3-2.59H5.38V6.8a1.62,1.62,0,1,1,3.24,0Z"/></svg>