<svg id="图层_1" data-name="图层 1" xmlns="http://www.w3.org/2000/svg" width="14" height="14" viewBox="0 0 14 14"><defs><style>.cls-1{fill:#b6c2cd;}.cls-2{fill:#324558;}.cls-3{fill:#5c7387;}</style></defs><path class="cls-1" d="M7,9.21A2.21,2.21,0,1,1,7,4.79V0a7,7,0,1,0,4.35,12.49L8.4,8.73A2.35,2.35,0,0,1,7,9.21Zm0,0"/><path class="cls-2" d="M9.21,7H14A7,7,0,0,0,7,0V4.79A2.21,2.21,0,0,1,9.21,7Zm0,0"/><path class="cls-3" d="M14,7H9.21a2.18,2.18,0,0,1-.85,1.73l3,3.76A6.93,6.93,0,0,0,14,7Zm0,0"/></svg>