<svg id="图层_1" data-name="图层 1" xmlns="http://www.w3.org/2000/svg" width="14" height="14" viewBox="0 0 14 14"><defs><style>.cls-1,.cls-2{fill:#fff;}.cls-1{opacity:0.5;}</style></defs><path class="cls-1" d="M7.72,12.37V14L5.56,12.7,3.39,14V12.37H3A2.41,2.41,0,0,1,.5,10.09V2A2.07,2.07,0,0,1,2.67,0H12.78a.69.69,0,0,1,.72.65V11.72a.69.69,0,0,1-.72.65Z"/><path class="cls-2" d="M3.39,11.07v-.8H7.72v.8h4.34v-2H3a1,1,0,0,0-1.09,1,1,1,0,0,0,1.09,1Z"/><rect class="cls-2" x="3.64" y="2.78" width="6.86" height="1.3"/><rect class="cls-2" x="3.64" y="5.65" width="6.86" height="1.3"/></svg>