<svg id="图层_1" data-name="图层 1" xmlns="http://www.w3.org/2000/svg" width="14" height="14" viewBox="0 0 14 14"><defs><style>.cls-1,.cls-2{fill:#fff;}.cls-1{opacity:0.5;}</style></defs><path class="cls-1" d="M7.29,2.1h6a.7.7,0,0,1,.7.7v9.8a.7.7,0,0,1-.7.7H.7a.7.7,0,0,1-.7-.7V1.4A.7.7,0,0,1,.7.7H5.89Z"/><path class="cls-2" d="M9.59,7.35H9.27V7A2.27,2.27,0,1,0,4.73,7v.32H4.41a.32.32,0,0,0-.32.33v3.23a.32.32,0,0,0,.32.33H9.59a.32.32,0,0,0,.32-.33V7.68A.32.32,0,0,0,9.59,7.35ZM7.32,9.94H6.68V8.65h.64Zm1.3-2.59H5.38V7A1.62,1.62,0,1,1,8.62,7Z"/></svg>