<svg id="图层_1" data-name="图层 1" xmlns="http://www.w3.org/2000/svg" width="14" height="14" viewBox="0 0 14 14"><defs><style>.cls-1,.cls-2{fill:#fff;}.cls-2{opacity:0.5;}</style></defs><path class="cls-1" d="M7.59,0H6.41a.5.5,0,0,0-.49.4L5.61,1.93a.48.48,0,0,1-.32.37l-.41.17a.5.5,0,0,1-.21,0,.47.47,0,0,1-.28-.09L3.1,1.57a.5.5,0,0,0-.63.06l-.84.84a.5.5,0,0,0-.06.63l.86,1.29a.51.51,0,0,1,0,.49c-.06.14-.12.27-.17.41a.48.48,0,0,1-.37.32L.4,5.92a.5.5,0,0,0-.4.49V7.59a.5.5,0,0,0,.4.49l1.53.31a.48.48,0,0,1,.37.32c.05.14.11.27.17.41a.51.51,0,0,1,0,.49L1.57,10.9a.5.5,0,0,0,.06.63l.84.84a.5.5,0,0,0,.63.06l1.29-.86a.47.47,0,0,1,.28-.09.5.5,0,0,1,.21,0l.41.17a.48.48,0,0,1,.32.37l.31,1.53a.5.5,0,0,0,.49.4H7.59a.5.5,0,0,0,.49-.4l.31-1.53a.48.48,0,0,1,.32-.37l.41-.17a.5.5,0,0,1,.21,0,.47.47,0,0,1,.28.09l1.29.86a.5.5,0,0,0,.63-.06l.84-.84a.5.5,0,0,0,.06-.63l-.86-1.29a.51.51,0,0,1,0-.49c.06-.14.12-.27.17-.41a.48.48,0,0,1,.37-.32l1.53-.31a.5.5,0,0,0,.4-.49V6.41a.5.5,0,0,0-.4-.49l-1.53-.31a.48.48,0,0,1-.37-.32c0-.14-.11-.27-.17-.41a.51.51,0,0,1,0-.49l.86-1.29a.5.5,0,0,0-.06-.63l-.84-.84a.5.5,0,0,0-.63-.06l-1.29.86a.47.47,0,0,1-.28.09.5.5,0,0,1-.21,0L8.71,2.3a.48.48,0,0,1-.32-.37L8.08.4A.5.5,0,0,0,7.59,0ZM7,10.5a3.5,3.5,0,1,1,2.47-1A3.49,3.49,0,0,1,7,10.5Zm0,0"/><circle class="cls-2" cx="6.99" cy="7.08" r="2"/></svg>