<svg id="图层_1" data-name="图层 1" xmlns="http://www.w3.org/2000/svg" width="24" height="24" viewBox="0 0 24 24"><defs><style>.cls-1{fill:#b6c2cd;}.cls-2{fill:#324558;}</style></defs><path class="cls-1" d="M9.18,1V3.2H12V1h9.79A1.15,1.15,0,0,1,23,2.09V21.91A1.17,1.17,0,0,1,21.79,23H2.21A1.15,1.15,0,0,1,1,21.91V2.09A1.17,1.17,0,0,1,2.21,1Z"/><rect class="cls-2" x="12" y="3.2" width="2.82" height="2.82"/><rect class="cls-2" x="9.18" y="6.02" width="2.82" height="2.82"/><rect class="cls-2" x="12" y="8.85" width="2.82" height="2.82"/><rect class="cls-2" x="9.18" y="11.67" width="2.82" height="2.82"/><polygon class="cls-2" points="12 14.49 12 17.31 9.18 17.31 9.18 21.55 14.82 21.55 14.82 14.49 12 14.49"/></svg>