<svg xmlns="http://www.w3.org/2000/svg" width="48" height="48" viewBox="0 0 48 48"><defs><style>.cls-1{fill:#eff4f9;}.cls-2{fill:#b6c2cd;}.cls-3{fill:#324558;}</style></defs><g id="图层_2" data-name="图层 2"><g id="图层_1-2" data-name="图层 1"><path class="cls-1" d="M24,0H48a0,0,0,0,1,0,0V24A24,24,0,0,1,24,48h0A24,24,0,0,1,0,24v0A24,24,0,0,1,24,0Z"/><path class="cls-2" d="M21.18,13v2.2H24V13h9.79A1.15,1.15,0,0,1,35,14.09V33.91A1.17,1.17,0,0,1,33.79,35H14.21A1.15,1.15,0,0,1,13,33.91V14.09A1.17,1.17,0,0,1,14.21,13Z"/><rect class="cls-3" x="24" y="15.2" width="2.82" height="2.82"/><rect class="cls-3" x="21.18" y="18.02" width="2.82" height="2.82"/><rect class="cls-3" x="24" y="20.85" width="2.82" height="2.82"/><rect class="cls-3" x="21.18" y="23.67" width="2.82" height="2.82"/><polygon class="cls-3" points="24 26.49 24 29.31 21.18 29.31 21.18 33.55 26.82 33.55 26.82 26.49 24 26.49"/></g></g></svg>