<svg id="图层_1" data-name="图层 1" xmlns="http://www.w3.org/2000/svg" xmlns:xlink="http://www.w3.org/1999/xlink" width="180" height="180" viewBox="0 0 180 180"><defs><style>.cls-1{fill:#fff;}.cls-2{fill:#e8edf6;}.cls-10,.cls-2,.cls-3,.cls-4,.cls-6{fill-rule:evenodd;}.cls-3{fill:#d7dde4;}.cls-4{fill:url(#未命名的渐变_27);}.cls-5{fill:url(#未命名的渐变_20);}.cls-6{fill:#e8eef5;}.cls-7{fill:url(#未命名的渐变_14);}.cls-8{fill:#d2d9e4;}.cls-9{mask:url(#mask);}.cls-10{fill:#c8ced9;}</style><linearGradient id="未命名的渐变_27" x1="71.23" y1="33.04" x2="106.24" y2="96.66" gradientUnits="userSpaceOnUse"><stop offset="0" stop-color="#dee4ec"/><stop offset="1" stop-color="#dee4ec"/></linearGradient><linearGradient id="未命名的渐变_20" x1="39.16" y1="4.05" x2="33.89" y2="86.12" gradientTransform="translate(62.68 -6.54) rotate(65)" gradientUnits="userSpaceOnUse"><stop offset="0" stop-color="#ecf1f7"/><stop offset="1" stop-color="#dfe5ed"/></linearGradient><linearGradient id="未命名的渐变_14" x1="48.09" y1="103.41" x2="111.33" y2="160.63" gradientUnits="userSpaceOnUse"><stop offset="0" stop-color="#ecf1f7"/><stop offset="1" stop-color="#dce2ea"/></linearGradient><mask id="mask" x="120.49" y="87.39" width="54.21" height="81.31" maskUnits="userSpaceOnUse"><g id="mask-4-7"><rect id="path-3-7" class="cls-1" x="120.49" y="87.39" width="38.4" height="81.31"/></g></mask></defs><path id="Oval-Copy-2" class="cls-2" d="M90,180c49.27,0,89.22-4.72,89.22-10.54s-49-7.53-98.25-7.53S.78,163.64.78,169.46,40.73,180,90,180Z"/><polygon id="Rectangle-Copy-14" class="cls-3" points="30.14 87.39 120.49 87.39 95.65 116.76 5.3 116.76 30.14 87.39"/><polygon id="Rectangle-Copy-10" class="cls-3" points="148.84 53.47 112 36.28 105.58 23.32 142.43 40.51 148.84 53.47"/><polygon id="Rectangle-Copy-11" class="cls-4" points="148.84 53.47 71.05 17.19 36.69 90.89 114.48 127.16 148.84 53.47"/><rect id="Rectangle-Copy-12" class="cls-5" x="-4.19" y="26.73" width="81.31" height="38.4" transform="translate(-20.57 59.57) rotate(-65)"/><polygon id="Rectangle-Copy-13" class="cls-6" points="36.25 0.97 71.05 17.19 106.39 16.23 71.59 0 36.25 0.97"/><rect id="Rectangle-Copy-15" class="cls-7" x="30.14" y="87.39" width="90.35" height="81.31"/><g id="Rectangle-Copy-17"><g id="Mask-2" data-name="Mask"><rect id="path-3-7-2" data-name="path-3-7" class="cls-8" x="120.49" y="87.39" width="38.4" height="81.31"/></g><g class="cls-9"><polygon id="Rectangle-Copy" class="cls-10" points="158.89 87.39 120.49 87.39 129.53 128.05 174.7 123.53 158.89 87.39"/></g></g><polygon id="Rectangle-Copy-18" class="cls-6" points="158.89 87.39 120.49 87.39 140.82 116.76 179.22 116.76 158.89 87.39"/></svg>