<svg id="图层_1" data-name="图层 1" xmlns="http://www.w3.org/2000/svg" width="14" height="14" viewBox="0 0 14 14"><defs><style>.cls-1,.cls-2{fill:#d12020;}.cls-1{opacity:0.15;}</style></defs><circle class="cls-1" cx="7" cy="7" r="6.5"/><path class="cls-2" d="M7,1A6,6,0,1,1,1,7,6,6,0,0,1,7,1M7,0a7,7,0,1,0,7,7A7,7,0,0,0,7,0Z"/><path class="cls-2" d="M9.57,4.2a.95.95,0,1,0,0,1.89.95.95,0,1,0,0-1.89ZM4.49,6.09a.95.95,0,1,0-1-1,.95.95,0,0,0,1,1Zm2.33,2.1A3.85,3.85,0,0,0,3.61,9.94.49.49,0,0,0,4,10.7h0a.45.45,0,0,0,.39-.2,2.84,2.84,0,0,1,4.75,0,.48.48,0,0,0,.4.2h0A.49.49,0,0,0,10,9.94,3.83,3.83,0,0,0,6.82,8.19Zm0,0"/></svg>