<svg id="图层_1" data-name="图层 1" xmlns="http://www.w3.org/2000/svg" width="48" height="48" viewBox="0 0 48 48"><defs><style>.cls-1{fill:#eff4f9;}.cls-2{fill:#b6c2cd;}.cls-3,.cls-4{fill:#324558;}.cls-3{opacity:0.6;}</style></defs><path class="cls-1" d="M24,0H48a0,0,0,0,1,0,0V24A24,24,0,0,1,24,48h0A24,24,0,0,1,0,24v0A24,24,0,0,1,24,0Z"/><path class="cls-2" d="M14.55,12.12H34.1a1.22,1.22,0,0,1,1.22,1.23V21.9h-22V13.35A1.23,1.23,0,0,1,14.55,12.12Z"/><path class="cls-3" d="M13.32,24.35h22V32.9a1.21,1.21,0,0,1-1.22,1.22H14.55a1.22,1.22,0,0,1-1.23-1.22Z"/><rect class="cls-4" x="18.21" y="28.01" width="3.67" height="2.44"/><rect class="cls-4" x="18.21" y="15.79" width="3.67" height="2.44"/></svg>