<svg id="图层_1" data-name="图层 1" xmlns="http://www.w3.org/2000/svg" width="48" height="48" viewBox="0 0 48 48"><defs><style>.cls-1{fill:#eff4f9;}.cls-2{fill:#b6c2cd;}.cls-3{fill:#324558;}</style></defs><path class="cls-1" d="M24,0H48a0,0,0,0,1,0,0V24A24,24,0,0,1,24,48h0A24,24,0,0,1,0,24v0A24,24,0,0,1,24,0Z"/><rect class="cls-2" x="12.29" y="11.35" width="24" height="24"/><path class="cls-3" d="M23.47,16.59h9.45v3.86H23.47Z"/><path class="cls-3" d="M23.43,26.59h9.45v3.86H23.43Z"/><polygon class="cls-3" points="17.74 15.54 20.67 18.57 17.64 21.5 14.71 18.47 17.74 15.54 17.74 15.54"/><rect class="cls-3" x="30.39" y="20.36" width="2.53" height="7.65"/><rect class="cls-3" x="15.58" y="26.07" width="4.21" height="4.21" transform="translate(-14.61 20.19) rotate(-44)"/><path class="cls-3" d="M24.13,17.91v1.4H20.07v-1.4Zm0,9.65V29H20.07v-1.4Zm0,0"/></svg>