<svg id="图层_1" data-name="图层 1" xmlns="http://www.w3.org/2000/svg" width="24" height="24" viewBox="0 0 24 24"><defs><style>.cls-1{fill:#b6c2cd;}.cls-2,.cls-3{fill:#324558;}.cls-2{opacity:0.6;}</style></defs><path class="cls-1" d="M2,1H22l1,1V22l-1,1H2L1,22V2Z"/><polygon class="cls-2" points="6.28 3.5 8.96 6.28 6.18 8.96 3.5 6.18 6.28 3.5 6.28 3.5"/><rect class="cls-2" x="15.84" y="15.84" width="3.86" height="3.86" transform="translate(-7.36 17.33) rotate(-44)"/><path class="cls-3" d="M15.84,12.69l-.07,0a1.4,1.4,0,0,1-.41.06c-.61,0-.95-.41-.77-.92a1.5,1.5,0,0,1,.92-.83,1.6,1.6,0,0,0,1.15-1.45A1.77,1.77,0,0,0,14.75,8a1.76,1.76,0,0,0-1.9,1.59v4.86a3.23,3.23,0,0,1-1.7,2.78,3.72,3.72,0,0,1-1.9.5,3.45,3.45,0,0,1-3.6-3.28,3,3,0,0,1,.45-1.58,3.58,3.58,0,0,1,2.07-1.54,1.48,1.48,0,0,1,.46-.08c.61,0,1,.42.77.93a1.48,1.48,0,0,1-.86.8L8.4,13a1.6,1.6,0,0,0-1.06,1.42A1.77,1.77,0,0,0,9.25,16a1.76,1.76,0,0,0,1.9-1.59V9.57a3.23,3.23,0,0,1,1.7-2.78,3.72,3.72,0,0,1,1.9-.5,3.45,3.45,0,0,1,3.6,3.28,3,3,0,0,1-.45,1.58A3.56,3.56,0,0,1,15.84,12.69Z"/></svg>