<svg id="图层_1" data-name="图层 1" xmlns="http://www.w3.org/2000/svg" width="34" height="34" viewBox="0 0 34 34"><defs><style>.cls-1{fill:#eff4f9;}.cls-2{fill:#fff;}.cls-3{fill:#e7b62f;}</style></defs><path class="cls-1" d="M2,4V30l2,2H30l2-2V4L30,2H4Z"/><path d="M25.08,23.84v-.1h0a2.33,2.33,0,0,1-.33-.9,1.61,1.61,0,0,0-.48-1h0c-.06-.06-.12-.07-.18-.13a.4.4,0,0,0-.18-.07,5.28,5.28,0,0,0-.17-3.58,12.17,12.17,0,0,0-2.11-3.38,5.09,5.09,0,0,1-1.52-3.27c0-2.09.23-6-3.44-6l-.46,0c-4.11.32-3,4.67-3.08,6.11a5.25,5.25,0,0,1-1,2.93,14.41,14.41,0,0,0-2.64,4.39,5.22,5.22,0,0,0-.28,2.42.32.32,0,0,0-.1.13c-.26.26-.44.58-.65.81a2.23,2.23,0,0,1-.77.39,1.43,1.43,0,0,0-.84.66,1.34,1.34,0,0,0-.13.59,2.48,2.48,0,0,0,.06.52,2.34,2.34,0,0,1,0,.94,1.81,1.81,0,0,0-.1,1.44,1.44,1.44,0,0,0,.91.58,10.9,10.9,0,0,1,2.7.58,3.68,3.68,0,0,0,2.54.46A1.7,1.7,0,0,0,14,27.49c.57,0,1.19-.26,2.19-.32.68-.06,1.53.26,2.51.19a1.42,1.42,0,0,0,.11.33h0a1.83,1.83,0,0,0,1.83,1,3.4,3.4,0,0,0,2.19-1.27A7.92,7.92,0,0,1,25.15,26a1.07,1.07,0,0,0,.63-.83A2,2,0,0,0,25.08,23.84ZM15.34,10.93h0c0,.06-.1.05-.16.07s-.08.06-.13.06-.13,0-.13-.06.08-.13.14-.13a.31.31,0,0,1,.25,0s0,0,0,.05v0Zm.57-.07a.31.31,0,0,1,.25,0c.06,0,.16.06.15.13s-.09.06-.14.06S16.09,11,16,11s-.14,0-.16-.07v0S15.89,10.87,15.91,10.86Zm.93,1.55c.19-.13.43-.33.63-.45s.15-.26.27-.26,0,.13-.14.32-.44.31-.67.45h0a3.56,3.56,0,0,1-1.44.52,2.32,2.32,0,0,1-1.25-.45c-.15-.13-.27-.26-.36-.33s-.14-.32-.07-.32.12.13.19.19a4.7,4.7,0,0,1,.35.33,2.07,2.07,0,0,0,1.14.45A3,3,0,0,0,16.84,12.41Z"/><path class="cls-2" d="M15.21,10h0a1.83,1.83,0,0,0-.14-.65,1.49,1.49,0,0,0-.34-.45.7.7,0,0,0-.39-.13h0a.57.57,0,0,0-.41.2,1.36,1.36,0,0,0-.27.52,1.71,1.71,0,0,0-.08.64,1.77,1.77,0,0,0,.15.65,2.7,2.7,0,0,0,.27.39.24.24,0,0,0,.13-.07c.05-.06.1-.07.17-.13l0,0a.78.78,0,0,1-.16-.26,1.21,1.21,0,0,1-.07-.33h0a.7.7,0,0,1,0-.32.47.47,0,0,1,.11-.26.26.26,0,0,1,.18-.13h0a.28.28,0,0,1,.18.06.54.54,0,0,1,.16.26.94.94,0,0,1,.08.32v0a1.13,1.13,0,0,1,0,.26,2.69,2.69,0,0,1,.38-.2l.08,0v-.08A1.07,1.07,0,0,0,15.21,10Zm3.14.13a2,2,0,0,0-.16-.71,1.5,1.5,0,0,0-.43-.51.88.88,0,0,0-.56-.2h0a.93.93,0,0,0-.58.2,1,1,0,0,0-.42.52,1.88,1.88,0,0,0-.15.74v0c0,.07,0,.13,0,.19.17.07.4.14.59.2a2.28,2.28,0,0,1,0-.26v0a1.38,1.38,0,0,1,.09-.39.83.83,0,0,1,.2-.32.3.3,0,0,1,.25-.13h0a.46.46,0,0,1,.26.13,1.24,1.24,0,0,1,.17.32.89.89,0,0,1,.06.39v0a1,1,0,0,1-.08.39,1.62,1.62,0,0,1-.18.19l.21.07a2.39,2.39,0,0,0,.28.13l.09,0a.94.94,0,0,0,.2-.33,1.6,1.6,0,0,0,.15-.68V10.1S18.35,10.14,18.35,10.16Z"/><path class="cls-3" d="M18.31,11.56v.13a1.07,1.07,0,0,0-.47-.39h0a4,4,0,0,1-1-.46,2,2,0,0,0-1.18-.38,2,2,0,0,0-.45.06,1.92,1.92,0,0,0-.82.58h0l-.17.12a5.38,5.38,0,0,1-.47.33.5.5,0,0,0-.19.58,1.51,1.51,0,0,0,.67.69h0a6,6,0,0,1,.59.45l.31.19a1.31,1.31,0,0,0,.44.07,1.92,1.92,0,0,0,1-.26c.26-.13.49-.32.75-.45h0a1.71,1.71,0,0,0,1-.81A.57.57,0,0,0,18.31,11.56Zm-2.4-.7a.31.31,0,0,1,.25,0c.06,0,.16.06.15.13s-.09.06-.14.06S16.09,11,16,11s-.14,0-.16-.07v0S15.89,10.87,15.91,10.86Zm-.85,0a.31.31,0,0,1,.25,0s0,0,0,.05v0h0c0,.06-.1.05-.16.07s-.08.06-.13.06-.13,0-.13-.06S15,10.87,15.06,10.87ZM17.6,12c-.22.16-.44.31-.67.45h0a3.56,3.56,0,0,1-1.44.52,2.32,2.32,0,0,1-1.25-.45c-.15-.13-.27-.26-.36-.33s-.14-.32-.07-.32.12.13.19.19a4.7,4.7,0,0,1,.35.33,2.07,2.07,0,0,0,1.14.45,3,3,0,0,0,1.35-.45c.19-.13.43-.33.63-.45s.15-.26.27-.26S17.78,11.83,17.6,12Z"/><path class="cls-2" d="M18.36,12.54A23.83,23.83,0,0,0,20,16.88a10.13,10.13,0,0,1,1.07,2.93,1.88,1.88,0,0,1,.5.07A3.93,3.93,0,0,0,20.55,16c-.21-.2-.22-.33-.12-.33A5.66,5.66,0,0,1,22,18.38a3.29,3.29,0,0,1,0,1.62.76.76,0,0,0,.2.06c1,.52,1.37.91,1.19,1.49v0h-.19c.15-.45-.17-.8-1-1.19s-1.6-.32-1.72.46a1.23,1.23,0,0,0,0,.13,1.17,1.17,0,0,1-.2.06,1.77,1.77,0,0,0-.77,1.15,11.23,11.23,0,0,0-.2,1.82h0A7,7,0,0,1,19,25.25a4.47,4.47,0,0,1-5.19.32,2.76,2.76,0,0,0-.39-.51,1.4,1.4,0,0,0-.27-.33,2,2,0,0,0,.46-.06.61.61,0,0,0,.3-.33,1.28,1.28,0,0,0-.33-1.13,6.33,6.33,0,0,0-1.74-1.47,2.51,2.51,0,0,1-1.12-1.36,3.06,3.06,0,0,1,0-1.59A9.63,9.63,0,0,1,12,16.1c.1-.06,0,.14-.4.95s-1.11,2.42-.12,3.74A7.87,7.87,0,0,1,12.06,18c.55-1.24,1.69-3.4,1.78-5.11a2.79,2.79,0,0,1,.28.19c.21.13.37.33.58.45a1.13,1.13,0,0,0,.85.33h.1a2.1,2.1,0,0,0,1-.26,7.51,7.51,0,0,1,.72-.38h0a1.88,1.88,0,0,0,1-.68Z"/><path class="cls-3" d="M13.18,25.23A9.93,9.93,0,0,1,12,23.64h0L11.14,22a1.69,1.69,0,0,0-1-.73H10a.83.83,0,0,0-.64.33c-.22.23-.4.55-.65.81h0a2.7,2.7,0,0,1-.89.46c-.29.13-.51.19-.67.51a1.61,1.61,0,0,0,0,.92,2.33,2.33,0,0,1,0,1.08h0A1.6,1.6,0,0,0,7,26.59.93.93,0,0,0,7.7,27a8,8,0,0,1,2.77.59,3.6,3.6,0,0,0,2.32.45,1.3,1.3,0,0,0,1.1-1.26h0A2.76,2.76,0,0,0,13.18,25.23Zm12.32-.16h0v0ZM24.88,24a2.15,2.15,0,0,1-.4-1,1.72,1.72,0,0,0-.38-.85h0a1,1,0,0,0-.82-.26h-.21a2.13,2.13,0,0,1-1.74.74,1.39,1.39,0,0,1-.85-1.34l0,0a1.44,1.44,0,0,0-.63,1A11,11,0,0,0,19.62,24a10.87,10.87,0,0,1-.45,1.84,2.51,2.51,0,0,0-.05,1.64h0a1.47,1.47,0,0,0,1.53.87,3,3,0,0,0,2-1.16A8.12,8.12,0,0,1,25,25.65c.31-.2.47-.33.49-.58A1.82,1.82,0,0,0,24.88,24Z"/></svg>