<svg id="图层_1" data-name="图层 1" xmlns="http://www.w3.org/2000/svg" width="34" height="34" viewBox="0 0 34 34"><defs><style>.cls-1{fill:#eff4f9;}.cls-2{fill:#d12020;}.cls-3{fill:#396397;}</style></defs><path class="cls-1" d="M2,4V30l2,2H30l2-2V4L30,2H4Z"/><path class="cls-2" d="M21.89,8.41c-.64.52-1.29.9-2.07,1.55-.51.52-1.68,1.16-1.68,1.94-.13,1.29,1.94,2.58.91,4.26a4.32,4.32,0,0,1-1.94,1.3c-.13-.13.26-.39.39-.52,1.42-1.94-1.42-2.59-1-5C16.59,9.57,19.44,8.8,21.89,8.41Z"/><path class="cls-3" d="M13.36,16.55c-.64.26-1.68.39-2.2,1A2.89,2.89,0,0,0,13,18a41.73,41.73,0,0,0,8.15-.51c.13.12-.26.38-.52.64-1.42,1-5.82,1.29-8.79,1.16-1-.12-3.36-.38-3.36-1.29,0-1.16,2.84-1.16,4-1.29C12.59,16.55,13,16.55,13.36,16.55Zm-1.42,2.84c.26,0-.26.26-.13.39,1,1,4.39.78,6.07.39a3.31,3.31,0,0,1,.91-.26c.65,0,1,.78,1.55.91a15.71,15.71,0,0,1-8.27.77c-.65-.13-1.94-.52-1.94-1,0-.78,1.29-1.17,1.81-1.17Zm.9,2.46c.13,0-.12.13,0,.26.52,1,3.36.64,4.79.26a1.76,1.76,0,0,1,.77-.26c.78,0,1,.77,1.68.9-1.94,1.17-6.85,1.68-8.79.13C11,22.24,11.94,22.11,12.84,21.85Z"/><path class="cls-3" d="M11,23.79c-.65.13-2.07,0-2.2.77,0,.26.51.65.9.78,2.07.77,6.08.9,9.44.52,1.55-.13,4.52-.65,4.13-2.33a.87.87,0,0,1,.91.77c.13,1.69-3.75,2.46-5.3,2.59-3.49.39-7.76.26-10.47-.65-.9-.25-1.94-.9-1.81-1.68C6.64,23.27,10,22.88,11,23.79Z"/><path class="cls-3" d="M16.33,29a25.24,25.24,0,0,1-6.46-1.42C14.78,28.7,22,28.7,25.51,26.11c.13-.12.39-.38.65-.38-.91,2.58-4.27,2.84-7.11,3.23Z"/><path class="cls-2" d="M17.88,4.14a3,3,0,0,1,.78,1.94c0,2.46-2.58,3.75-3.75,5.43a2.66,2.66,0,0,0-.64,1.55c0,1.29,1.42,2.84,1.81,3.88a10.66,10.66,0,0,1-2.72-2.2c-.64-.9-1.42-2.33-.77-3.62,1-1.94,4.13-3,5.17-5A2.07,2.07,0,0,0,17.88,4.14Z"/><path class="cls-3" d="M21.63,17.2c1.3-1,3.49-.65,3.49,1.16.13,2.2-2.32,3.36-4,3.49.77-.78,2.84-1.94,2.45-3.75a1.44,1.44,0,0,0-1.94-.9Z"/></svg>