<svg id="图层_1" data-name="图层 1" xmlns="http://www.w3.org/2000/svg" width="48" height="48" viewBox="0 0 48 48"><defs><style>.cls-1{fill:#eff4f9;}.cls-2{fill:#b6c2cd;}.cls-3,.cls-4{fill:#324558;}.cls-3{opacity:0.6;}</style></defs><path class="cls-1" d="M24,0H48a0,0,0,0,1,0,0V24A24,24,0,0,1,24,48h0A24,24,0,0,1,0,24v0A24,24,0,0,1,24,0Z"/><path class="cls-2" d="M14.5,12.5h20l1,1v20l-1,1h-20l-1-1v-20Z"/><polygon class="cls-3" points="18.78 15 21.46 17.78 18.68 20.46 16 17.68 18.78 15 18.78 15"/><rect class="cls-3" x="28.34" y="27.34" width="3.86" height="3.86" transform="translate(-11.84 29.24) rotate(-44)"/><path class="cls-4" d="M28.34,24.19l-.07,0a1.4,1.4,0,0,1-.41.06c-.61,0-.95-.41-.77-.92a1.5,1.5,0,0,1,.92-.83,1.6,1.6,0,0,0,1.15-1.45,1.77,1.77,0,0,0-1.91-1.59,1.76,1.76,0,0,0-1.9,1.59v4.86a3.23,3.23,0,0,1-1.7,2.78,3.72,3.72,0,0,1-1.9.5,3.45,3.45,0,0,1-3.6-3.28,3,3,0,0,1,.45-1.58,3.58,3.58,0,0,1,2.07-1.54,1.48,1.48,0,0,1,.46-.08c.61,0,1,.42.77.93a1.48,1.48,0,0,1-.86.8l-.14.05a1.6,1.6,0,0,0-1.06,1.42,1.77,1.77,0,0,0,1.91,1.59,1.76,1.76,0,0,0,1.9-1.59V21.07a3.23,3.23,0,0,1,1.7-2.78,3.72,3.72,0,0,1,1.9-.5,3.45,3.45,0,0,1,3.6,3.28,3,3,0,0,1-.45,1.58A3.56,3.56,0,0,1,28.34,24.19Z"/></svg>