<svg id="图层_1" data-name="图层 1" xmlns="http://www.w3.org/2000/svg" width="34" height="34" viewBox="0 0 34 34"><defs><style>.cls-1{fill:#eff4f9;}.cls-2{fill:#396397;}</style></defs><path class="cls-1" d="M2,4V30l2,2H30l2-2V4L30,2H4Z"/><path class="cls-2" d="M20.75,6.69a6.31,6.31,0,0,1,6,1.5A2.25,2.25,0,0,1,27.51,10a16.83,16.83,0,0,1-1.9,6.9,11.82,11.82,0,0,1-1.05,1.79,8.91,8.91,0,0,0,.08-3.88,3.43,3.43,0,0,1,.08-1.06,5.24,5.24,0,0,0-1.15-4.62,9,9,0,0,0-2.82-2.42ZM14.11,19.36a3.25,3.25,0,0,1-1.36-3.21,8.91,8.91,0,0,0,0-2.42.8.8,0,0,1,.57-1h.06a3.92,3.92,0,0,1,1.5-.39,1.23,1.23,0,0,1,1.29,1.13,8.54,8.54,0,0,1-.87,5.72.78.78,0,0,1-1.08.24Zm1.1-5.82c.25,0,.52-.07.51-.37s-.31-.43-.7-.4c-.13,0-.48-.1-.44.3S14.9,13.52,15.21,13.54Zm-3.23,3a13.59,13.59,0,0,0,.12-2.21,9.37,9.37,0,0,1,1.84-6.94,9.16,9.16,0,0,0-4.21-.51A3.41,3.41,0,0,0,6.65,9.71a6.27,6.27,0,0,0-.13,2.07,27.24,27.24,0,0,0,2.27,8.5,4.54,4.54,0,0,0,.91,1.38c.58.6,1,.61,1.56,0s1.06-1.22,1.62-1.82c.25-.25.23-.4,0-.64a3.31,3.31,0,0,1-.9-2.63Zm4.46,4c-.32-.3-.61-.1-.77.19-.54.92-1.47,1.14-2.62,1.36a3.31,3.31,0,0,0,1.58.34,2.47,2.47,0,0,0,1.9-1,.6.6,0,0,0,0-.85Zm7.71-8c-.38,1.51,0,3,0,4.55a1.63,1.63,0,0,1-.3,1.09,23.12,23.12,0,0,1-1.7-3.46,4.69,4.69,0,0,1-.22-1,1.48,1.48,0,0,1,1.26-1.66,1.57,1.57,0,0,1,.8.12c.19.08.23.19.19.33Zm-.76.26c0-.27-.17-.32-.44-.28s-.53,0-.52.37.25.33.48.33A.43.43,0,0,0,23.39,12.83Zm.91,7.5c-.27-.13-.57.19-.65.53s-.06.51.29.55a4.54,4.54,0,0,0,3.4-.85,5.44,5.44,0,0,1-3-.21Zm-.66-1.08a25.28,25.28,0,0,1-1.93-3.59,5,5,0,0,1-.53-2.36,1.74,1.74,0,0,1,1.3-1.7A8.35,8.35,0,0,1,24,11.46a6.79,6.79,0,0,0-6-4.73,4.15,4.15,0,0,0-4.46,2.65,6.88,6.88,0,0,0-.6,2.17c0,.18-.29.36-.06.52s.36,0,.55-.07a3.85,3.85,0,0,1,.81-.27,2,2,0,0,1,2.24.66,3.16,3.16,0,0,1,.42,1.29,6.54,6.54,0,0,1-.33,4.38c-.19.39-.33.79-.48,1.19-.08.23-.12.36.2.47.94.29,1.14.68,1.14,1.7a31.15,31.15,0,0,0,.23,5.29,1.94,1.94,0,0,0,1.26,1.7,2.78,2.78,0,0,0,3.38-2,.29.29,0,0,0,0-.09c.28-1.7.48-3.4.62-5.14a1.41,1.41,0,0,1,.67-1.34c.32-.18.19-.34.05-.56Z"/></svg>