<svg id="图层_1" data-name="图层 1" xmlns="http://www.w3.org/2000/svg" width="48" height="48" viewBox="0 0 48 48"><defs><style>.cls-1{fill:#eff4f9;}.cls-2{fill:#b6c2cd;}.cls-3,.cls-4{fill:#324558;}.cls-4{opacity:0.6;}</style></defs><path class="cls-1" d="M24,0H48a0,0,0,0,1,0,0V24A24,24,0,0,1,24,48h0A24,24,0,0,1,0,24v0A24,24,0,0,1,24,0Z"/><path class="cls-2" d="M28.8,10.86l6,6v16.8a1.19,1.19,0,0,1-1.19,1.2H14.39a1.21,1.21,0,0,1-1.19-1.2V12.05a1.19,1.19,0,0,1,1.19-1.19Z"/><circle class="cls-3" cx="24" cy="19.38" r="3.53"/><path class="cls-4" d="M17.69,29.86H30.31a6.35,6.35,0,0,0-12.62,0Z"/></svg>