<svg id="图层_1" data-name="图层 1" xmlns="http://www.w3.org/2000/svg" width="48" height="48" viewBox="0 0 48 48"><defs><style>.cls-1{fill:#eff4f9;}.cls-2{fill:#b6c2cd;}.cls-3{fill:#324558;}</style></defs><path class="cls-1" d="M24,0H48a0,0,0,0,1,0,0V24A24,24,0,0,1,24,48h0A24,24,0,0,1,0,24v0A24,24,0,0,1,24,0Z"/><circle class="cls-2" cx="24.5" cy="24" r="12"/><path class="cls-3" d="M19.85,22.8H15a9.64,9.64,0,0,0,0,2.4h4.88A4.87,4.87,0,0,1,19.85,22.8Z"/><path class="cls-3" d="M29.15,22.8a4.87,4.87,0,0,1,0,2.4H34a9.64,9.64,0,0,0,0-2.4Z"/><circle class="cls-3" cx="24.5" cy="24" r="2.4"/></svg>