<svg id="图层_1" data-name="图层 1" xmlns="http://www.w3.org/2000/svg" width="48" height="48" viewBox="0 0 48 48"><defs><style>.cls-1{fill:#eff4f9;}.cls-2{fill:#b6c2cd;}.cls-3,.cls-4{fill:#324558;}.cls-4{opacity:0.6;}</style></defs><path class="cls-1" d="M24,0H48a0,0,0,0,1,0,0V24A24,24,0,0,1,24,48h0A24,24,0,0,1,0,24v0A24,24,0,0,1,24,0Z"/><rect class="cls-2" x="12" y="13.2" width="24" height="21.6" rx="1.2"/><polygon class="cls-3" points="29.36 28.24 33.6 24 29.36 19.76 27.66 21.46 30.21 24 27.66 26.55 29.36 28.24"/><polygon class="cls-3" points="17.79 24 20.34 21.45 18.64 19.76 14.4 24 18.64 28.24 20.34 26.54 17.79 24"/><polygon class="cls-4" points="23.09 30 27.46 18 24.91 18 20.54 30 23.09 30"/></svg>