<svg id="图层_1" data-name="图层 1" xmlns="http://www.w3.org/2000/svg" width="14" height="14" viewBox="0 0 14 14"><defs><style>.cls-1,.cls-2{fill:#fff;}.cls-2{opacity:0.5;}</style></defs><path class="cls-1" d="M7.58.08H6.4a.49.49,0,0,0-.49.41L5.6,2a.5.5,0,0,1-.32.37l-.41.17a.54.54,0,0,1-.22.05.53.53,0,0,1-.27-.08l-1.3-.87a.5.5,0,0,0-.63.07l-.83.83a.49.49,0,0,0-.06.63l.86,1.3a.48.48,0,0,1,0,.49c-.06.13-.11.27-.16.41a.52.52,0,0,1-.38.32L.39,6a.49.49,0,0,0-.4.49V7.67a.49.49,0,0,0,.4.49l1.52.31a.52.52,0,0,1,.38.32c0,.14.1.28.16.41a.48.48,0,0,1,0,.49L1.56,11a.5.5,0,0,0,.06.64l.83.83a.49.49,0,0,0,.63.06l1.3-.86a.54.54,0,0,1,.28-.08.52.52,0,0,1,.21,0,3,3,0,0,0,.41.17.5.5,0,0,1,.32.38l.31,1.52a.49.49,0,0,0,.49.4H7.58a.5.5,0,0,0,.49-.4l.3-1.52a.52.52,0,0,1,.32-.38,3,3,0,0,0,.41-.17.54.54,0,0,1,.22,0,.5.5,0,0,1,.27.08l1.3.86a.49.49,0,0,0,.63-.06l.83-.83a.51.51,0,0,0,.07-.64l-.87-1.29a.5.5,0,0,1,0-.49c.06-.13.12-.27.17-.41a.5.5,0,0,1,.37-.32l1.52-.31A.49.49,0,0,0,14,7.67V6.49A.5.5,0,0,0,13.58,6l-1.52-.3a.52.52,0,0,1-.37-.32c0-.14-.11-.28-.17-.41a.5.5,0,0,1,0-.49l.87-1.3a.5.5,0,0,0-.07-.63l-.83-.83a.5.5,0,0,0-.63-.07l-1.3.87a.5.5,0,0,1-.27.08.54.54,0,0,1-.22-.05l-.41-.17A.52.52,0,0,1,8.37,2L8.07.49A.51.51,0,0,0,7.58.08ZM7,10.58a3.5,3.5,0,1,1,2.47-1,3.43,3.43,0,0,1-2.47,1Zm0,0"/><circle class="cls-2" cx="6.99" cy="7.08" r="2"/></svg>