<svg id="图层_1" data-name="图层 1" xmlns="http://www.w3.org/2000/svg" width="24" height="24" viewBox="0 0 24 24"><defs><style>.cls-1,.cls-3{fill:#324558;}.cls-1{opacity:0.6;}.cls-2{fill:#b6c2cd;}</style></defs><path class="cls-1" d="M12,10.85a5.74,5.74,0,0,1,5.75,5.75v6.9H6.25V16.6A5.74,5.74,0,0,1,12,10.85Z"/><path class="cls-2" d="M4.28,14.31A8,8,0,0,0,4,16.2v7.3H.5V18.32a4,4,0,0,1,3.59-4Z"/><path class="cls-2" d="M19.72,14.31a4,4,0,0,1,3.78,4V23.5H20.05V16.6A8.18,8.18,0,0,0,19.72,14.31Z"/><circle class="cls-1" cx="4.53" cy="10.27" r="2.87"/><circle class="cls-1" cx="19.48" cy="10.27" r="2.87"/><circle class="cls-3" cx="12" cy="5.1" r="4.6"/></svg>