<svg id="图层_1" data-name="图层 1" xmlns="http://www.w3.org/2000/svg" width="48" height="48" viewBox="0 0 48 48"><defs><style>.cls-1{fill:#eff4f9;}.cls-2,.cls-4{fill:#324558;}.cls-2{opacity:0.6;}.cls-3{fill:#b6c2cd;}</style></defs><path class="cls-1" d="M24,0H48a0,0,0,0,1,0,0V24A24,24,0,0,1,24,48h0A24,24,0,0,1,0,24v0A24,24,0,0,1,24,0Z"/><path class="cls-2" d="M23.69,21.75a5.75,5.75,0,0,1,5.75,5.75v6.9H17.94V27.5A5.76,5.76,0,0,1,23.69,21.75Z"/><path class="cls-3" d="M16,25.21a8.12,8.12,0,0,0-.32,1.9V34.4H12.19V29.23a4,4,0,0,1,3.59-4l.2,0Z"/><path class="cls-3" d="M31.41,25.21a4,4,0,0,1,3.78,4V34.4H31.74V27.5A7.93,7.93,0,0,0,31.41,25.21Z"/><circle class="cls-2" cx="16.22" cy="21.18" r="2.87"/><circle class="cls-2" cx="31.17" cy="21.18" r="2.87"/><circle class="cls-4" cx="23.69" cy="16" r="4.6"/></svg>