<svg id="图层_1" data-name="图层 1" xmlns="http://www.w3.org/2000/svg" width="48" height="48" viewBox="0 0 48 48"><defs><style>.cls-1{fill:#eff4f9;}.cls-2{fill:#b6c2cd;}.cls-3,.cls-4{fill:#324558;}.cls-3{opacity:0.6;}</style></defs><path class="cls-1" d="M24,0H48a0,0,0,0,1,0,0V24A24,24,0,0,1,24,48h0A24,24,0,0,1,0,24v0A24,24,0,0,1,24,0Z"/><circle class="cls-2" cx="24" cy="24" r="13"/><path class="cls-3" d="M21.4,34.07V29.72c0-1.67,1.29-3,3.21-3.73a11.08,11.08,0,0,0-10.42,1.47A10.43,10.43,0,0,0,21.4,34.07Z"/><path class="cls-3" d="M32.94,29.31c-.51-.69-2.22-1.41-4.39-1.41-2.61,0-4.55,1-4.55,1.82V34.4A10.38,10.38,0,0,0,32.94,29.31Z"/><circle class="cls-4" cx="20.82" cy="20.42" r="2.92"/><circle class="cls-4" cx="28.55" cy="22.05" r="2.6"/></svg>