<svg xmlns="http://www.w3.org/2000/svg" width="48" height="48" viewBox="0 0 48 48"><defs><style>.cls-1{fill:#eff4f9;}.cls-2{fill:#b6c2cd;}.cls-3{fill:#324558;}</style></defs><g id="图层_2" data-name="图层 2"><g id="图层_1-2" data-name="图层 1"><path class="cls-1" d="M24,0H48a0,0,0,0,1,0,0V24A24,24,0,0,1,24,48h0A24,24,0,0,1,0,24v0A24,24,0,0,1,24,0Z"/><path class="cls-2" d="M24,25.44c7.11,0,12.89,4.28,13,11.35v0a.17.17,0,0,1-.18.18H11.18a.17.17,0,0,1-.18-.18v0c.11-7.07,5.89-11.35,13-11.35Z"/><path class="cls-3" d="M18.22,16.78A5.78,5.78,0,1,0,24,11a5.78,5.78,0,0,0-5.78,5.78Z"/></g></g></svg>