<svg id="图层_1" data-name="图层 1" xmlns="http://www.w3.org/2000/svg" width="48" height="48" viewBox="0 0 48 48"><defs><style>.cls-1{fill:#eff4f9;}.cls-2,.cls-4{fill:#324558;}.cls-3{fill:#b6c2cd;}.cls-4{opacity:0.6;}</style></defs><path class="cls-1" d="M24,0H48a0,0,0,0,1,0,0V24A24,24,0,0,1,24,48h0A24,24,0,0,1,0,24v0A24,24,0,0,1,24,0Z"/><circle class="cls-2" cx="23.92" cy="15.81" r="6"/><path class="cls-3" d="M22.61,23.39h2.62a10.5,10.5,0,0,1,9.19,10.42h-21A10.5,10.5,0,0,1,22.61,23.39Z"/><rect class="cls-4" x="22.61" y="23.39" width="2.72" height="7.82"/></svg>