<svg id="图层_1" data-name="图层 1" xmlns="http://www.w3.org/2000/svg" width="33" height="33" viewBox="0 0 33 33"><defs><style>.cls-1{fill:#03A9E5;}.cls-2{fill:#fff;}</style></defs><title>的</title><circle class="cls-1" cx="16.5" cy="16.5" r="16.5"/><path class="cls-2" d="M23.13,10H9.87a.37.37,0,0,0-.37.37V12.7a.38.38,0,0,0,.37.37H23.13a.38.38,0,0,0,.37-.37V10.34A.37.37,0,0,0,23.13,10Zm-4.3,2.22c0,.13-.06.19-.18.19h-.56a.17.17,0,0,1-.19-.19v-.56a.17.17,0,0,1,.19-.19h.56a.17.17,0,0,1,.18.19Zm1.87,0a.17.17,0,0,1-.19.19H20c-.12,0-.18-.06-.18-.19v-.56a.17.17,0,0,1,.18-.19h.56a.17.17,0,0,1,.19.19Zm1.87,0a.17.17,0,0,1-.19.19h-.56a.17.17,0,0,1-.19-.19v-.56a.17.17,0,0,1,.19-.19h.56a.17.17,0,0,1,.19.19Z"/><path class="cls-2" d="M23.13,14.63H9.87A.38.38,0,0,0,9.5,15v2.55a.38.38,0,0,0,.37.37H23.13a.38.38,0,0,0,.37-.37V15A.38.38,0,0,0,23.13,14.63Zm-.56,2.18a.17.17,0,0,1-.19.19H10.62a.17.17,0,0,1-.19-.19V15.75a.17.17,0,0,1,.19-.18H22.38a.17.17,0,0,1,.19.18Z"/><path class="cls-2" d="M23.13,19.45H9.87a.37.37,0,0,0-.37.37v2.84a.37.37,0,0,0,.37.37H23.13a.38.38,0,0,0,.37-.37V19.82A.37.37,0,0,0,23.13,19.45ZM12.3,21.91a.17.17,0,0,1-.19.19H10.62a.17.17,0,0,1-.19-.19V20.57a.17.17,0,0,1,.19-.19h1.49a.17.17,0,0,1,.19.19Zm1.87,0a.17.17,0,0,1-.19.19h-.56a.17.17,0,0,1-.19-.19V20.57a.17.17,0,0,1,.19-.19H14a.17.17,0,0,1,.19.19Zm1.86,0c0,.13-.06.19-.18.19h-.56a.17.17,0,0,1-.19-.19V20.57a.17.17,0,0,1,.19-.19h.56c.12,0,.18.06.18.19Zm1.87,0a.17.17,0,0,1-.19.19h-.56C17,22.1,17,22,17,21.91V20.57c0-.13.06-.19.18-.19h.56a.17.17,0,0,1,.19.19Zm1.87,0a.17.17,0,0,1-.19.19H19a.17.17,0,0,1-.19-.19V20.57a.17.17,0,0,1,.19-.19h.56a.17.17,0,0,1,.19.19Zm2.8,0a.17.17,0,0,1-.19.19H20.89a.17.17,0,0,1-.19-.19V20.57a.17.17,0,0,1,.19-.19h1.49a.17.17,0,0,1,.19.19Z"/></svg>